<?xml version="1.0" encoding="UTF-8" standalone="no"?>
<!-- Created with Inkscape (http://www.inkscape.org/) -->

<svg
   xmlns:dc="http://purl.org/dc/elements/1.1/"
   xmlns:cc="http://creativecommons.org/ns#"
   xmlns:rdf="http://www.w3.org/1999/02/22-rdf-syntax-ns#"
   xmlns:svg="http://www.w3.org/2000/svg"
   xmlns="http://www.w3.org/2000/svg"
   version="1.1"
   width="100%"
   height="100%"
   viewBox="0 0 476.59999 182.98377"
   id="Lager_1"
   xml:space="preserve"><metadata
     id="metadata3345"><rdf:RDF><cc:Work
         rdf:about=""><dc:format>image/svg+xml</dc:format><dc:type
           rdf:resource="http://purl.org/dc/dcmitype/StillImage" /><dc:title></dc:title></cc:Work></rdf:RDF></metadata><defs
     id="defs3343" /><style
     type="text/css"
     id="style3207" /><g
     transform="translate(-174.50002,-150.8)"
     id="g3209"><path
       d="m 227.2,205.6 c 13.4,0 22.9,4.2 28.6,12.6 3.6,5.4 5.5,12 5.5,19.8 0,10.6 -2.9,18.7 -8.7,24.2 -5.7,5.5 -14.2,8.2 -25.4,8.2 -14,0 -23.7,-4.4 -29.3,-13.1 v 4.4 c 0,2.1 -0.8,3.9 -2.3,5.4 -1.5,1.5 -3.3,2.3 -5.5,2.3 h -15.6 v -4.1 h 15.6 c 0.8,0 1.5,-0.4 2.1,-1.1 0.6,-0.7 0.8,-1.6 0.8,-2.5 v -76.9 c 0,-1 -0.3,-1.8 -0.8,-2.6 -0.6,-0.7 -1.3,-1.1 -2.1,-1.1 h -3 v -4 h 3 c 2.2,0 4,0.8 5.5,2.3 1.5,1.5 2.3,3.3 2.3,5.4 v 34.3 c 5.6,-9 15.4,-13.5 29.3,-13.5 z m 0,60.8 c 19.6,0 29.3,-9.5 29.3,-28.4 0,-6.9 -1.6,-12.7 -4.8,-17.4 -4.9,-7.3 -13.1,-11 -24.6,-11 -11.5,0 -19.7,3.7 -24.6,11 -3.1,4.7 -4.7,10.5 -4.7,17.4 0.1,18.9 9.9,28.4 29.4,28.4 z"
       id="path3211"
       style="fill:#717171" /><path
       d="m 276.9,206.6 v 62.8 H 272 v -62.8 l 4.9,0 0,0 z"
       id="path3213"
       style="fill:#717171" /><path
       d="m 321.9,205.5 c 13.4,0 22.9,4.2 28.6,12.6 3.7,5.4 5.5,12 5.5,19.9 0,10.6 -2.9,18.7 -8.7,24.2 -5.8,5.5 -14.3,8.3 -25.5,8.3 -11.2,0 -19.7,-2.8 -25.5,-8.3 -5.8,-5.5 -8.7,-13.6 -8.7,-24.2 0,-7.9 1.8,-14.5 5.5,-19.9 5.9,-8.4 15.4,-12.6 28.8,-12.6 z m 0,61 c 19.6,0 29.3,-9.5 29.3,-28.5 0,-6.9 -1.6,-12.7 -4.7,-17.5 -4.9,-7.3 -13.1,-11 -24.6,-11 -11.5,0 -19.7,3.7 -24.6,11 -3.1,4.8 -4.7,10.6 -4.7,17.5 0,19 9.8,28.5 29.3,28.5 z"
       id="path3215"
       style="fill:#717171" /><path
       d="m 433.2,239.9 h -63.5 c 0.7,17.6 10.5,26.4 29.3,26.4 6.9,0 12.8,-1.2 17.6,-3.6 2.5,-1.2 4.2,-2.5 5.2,-3.7 0.5,-0.6 0.8,-1.4 0.8,-2.1 v -4.8 h 4.9 v 4.8 c 0,1.6 -0.5,3 -1.6,4.4 -1.3,1.6 -3.4,3.2 -6.3,4.7 -5.6,3 -12.4,4.4 -20.6,4.4 -11.2,0 -19.7,-2.8 -25.5,-8.3 -5.8,-5.5 -8.7,-13.6 -8.7,-24.2 0,-7.9 1.8,-14.5 5.5,-19.9 5.7,-8.4 15.2,-12.6 28.6,-12.6 13.4,0 22.9,4.2 28.6,12.6 3.7,5.4 5.5,12 5.5,19.9 v 2 h 0.2 z m -34.1,-30.5 c -10.7,0 -18.5,3.1 -23.5,9.4 -3.5,4.4 -5.5,10.1 -5.8,17.1 h 58.6 c -0.4,-7 -2.3,-12.6 -5.9,-17.1 -4.9,-6.3 -12.8,-9.4 -23.4,-9.4 z"
       id="path3217"
       style="fill:#717171" /></g><ellipse
     cx="441.10001"
     cy="171.60001"
     rx="16"
     ry="16.6"
     transform="translate(-174.50002,-150.8)"
     id="ellipse3219"
     style="opacity:0.85;fill:#ffa400;enable-background:new" /><path
     d="m 360.99998,98.6 h 4.8 v 7 c 0,2 -0.7,3.9 -2,5.6 -1.2,1.5 -3.3,3 -6.1,4.4 -5.5,2.8 -12.3,4.2 -20.4,4.2 -11.6,0 -20.3,-3.4 -26.3,-10.3 -5.1,-5.8 -7.6,-13.2 -7.6,-22.1 0,-9 2.5,-16.4 7.6,-22.2 6,-6.9 14.8,-10.4 26.3,-10.4 8.1,0 14.9,1.4 20.4,4.2 2.9,1.5 4.9,3 6.2,4.5 1.3,1.7 1.9,3.6 1.9,5.6 v 6.8 h -4.8 v -6.8 c 0,-1.2 -0.4,-2.4 -1.2,-3.3 -1,-1.2 -2.7,-2.3 -5.1,-3.5 -4.7,-2.3 -10.5,-3.4 -17.4,-3.4 -11.6,0 -19.8,3.9 -24.7,11.7 -2.9,4.8 -4.4,10.4 -4.4,16.8 0,6.4 1.5,12 4.4,16.7 4.9,7.8 13.1,11.7 24.7,11.7 6.9,0 12.7,-1.1 17.4,-3.3 2.5,-1.2 4.2,-2.3 5.1,-3.5 0.8,-1 1.2,-2.1 1.2,-3.3 l 0,-7.1 0,0 z"
     id="path3221"
     style="fill:#717171" /><path
     d="m 442.69998,89.1 h -63.5 c 0.7,17.6 10.5,26.4 29.3,26.4 6.9,0 12.8,-1.2 17.6,-3.6 2.5,-1.2 4.2,-2.5 5.2,-3.7 0.5,-0.6 0.8,-1.4 0.8,-2.1 v -4.8 h 4.9 v 4.8 c 0,1.6 -0.5,3 -1.6,4.4 -1.3,1.6 -3.4,3.2 -6.3,4.7 -5.6,3 -12.4,4.4 -20.6,4.4 -11.2,0 -19.7,-2.8 -25.5,-8.3 -5.8,-5.5 -8.7,-13.6 -8.7,-24.2 0,-7.9 1.8,-14.5 5.5,-19.9 5.7,-8.4 15.2,-12.6 28.6,-12.6 13.4,0 22.9,4.2 28.6,12.6 3.7,5.4 5.5,12 5.5,19.9 v 2 h 0.2 z m -34.1,-30.5 c -10.7,0 -18.5,3.1 -23.5,9.4 -3.5,4.4 -5.5,10.1 -5.8,17.1 h 58.6 c -0.4,-7 -2.3,-12.6 -5.9,-17.1 -4.9,-6.3 -12.8,-9.4 -23.4,-9.4 z"
     id="path3223"
     style="fill:#717171" /><path
     d="m 227.99998,3.1 c 0,0 10.9,30.5 37.4,49.1 26.5,18.6 34.2,27.3 54.5,46.5 14.2,13.4 11.8,32.2 8,46.9 -3.8,14.7 2.8,-16 -20.4,-34.6 -6.4,-5.1 -29.2,-23.3 -51.7,-42.7 -19.9,-17.3 -36.7,-40 -27.8,-65.2 z"
     id="path3225"
     style="opacity:0.76999996;fill:#009a44;enable-background:new" /><path
     d="m 310.19998,0 c 0,0 15.8,31.9 -6.3,62.5 -24.5,33.9 -45.9,54.4 -62.1,72.9 -11.3,12.9 -14.9,37.8 -10.2,46.4 4.7,8.6 -20.1,-31.5 1.8,-60.7 16.2,-21.7 43.6,-53.1 60,-73.5 13.2,-16.5 22.4,-22.1 16.8,-47.6 z"
     id="path3227"
     style="opacity:0.85;fill:#ffa400;enable-background:new" /><g
     transform="translate(-174.50002,-150.8)"
     id="g3229"><path
       d="m 186,293.9 h 0.5 v 0.9 c 0,0.3 -0.1,0.5 -0.2,0.7 -0.2,0.3 -0.5,0.6 -0.9,0.9 -0.8,0.6 -1.7,0.8 -2.8,0.8 -1.6,0 -2.8,-0.6 -3.6,-1.9 -0.7,-1.1 -1,-2.5 -1,-4.2 0,-1.7 0.3,-3.1 1,-4.2 0.8,-1.3 2,-1.9 3.6,-1.9 1.1,0 2.1,0.3 2.8,0.8 0.4,0.3 0.7,0.6 0.9,0.9 0.1,0.2 0.2,0.5 0.2,0.7 v 0.9 H 186 v -0.9 c 0,-0.2 0,-0.3 -0.1,-0.5 -0.2,-0.3 -0.4,-0.5 -0.8,-0.7 -0.7,-0.5 -1.5,-0.7 -2.5,-0.7 -1.7,0 -2.8,0.8 -3.5,2.3 -0.4,0.9 -0.6,2 -0.6,3.3 0,1.3 0.2,2.3 0.6,3.3 0.7,1.5 1.9,2.3 3.5,2.3 1,0 1.8,-0.2 2.5,-0.7 0.4,-0.2 0.6,-0.5 0.7,-0.7 0.1,-0.1 0.1,-0.3 0.1,-0.5 v -0.9 h 0.1 z"
       id="path3231"
       style="fill:#1d1d1b" /><path
       d="m 196,293.3 h -6.8 c 0.1,2.3 1.1,3.4 3.2,3.4 0.7,0 1.4,-0.2 1.9,-0.5 0.3,-0.2 0.5,-0.3 0.6,-0.5 0.1,-0.1 0.1,-0.2 0.1,-0.3 v -0.6 h 0.5 v 0.6 c 0,0.2 -0.1,0.4 -0.2,0.6 -0.1,0.2 -0.4,0.4 -0.7,0.6 -0.6,0.4 -1.3,0.6 -2.2,0.6 -1.2,0 -2.1,-0.4 -2.7,-1.1 -0.6,-0.7 -0.9,-1.7 -0.9,-3.1 0,-1 0.2,-1.9 0.6,-2.6 0.6,-1.1 1.6,-1.6 3.1,-1.6 1.5,0 2.5,0.5 3.1,1.6 0.4,0.7 0.6,1.6 0.6,2.6 v 0.3 H 196 z m -3.7,-4 c -1.2,0 -2,0.4 -2.5,1.2 -0.4,0.6 -0.6,1.3 -0.6,2.2 h 6.3 c 0,-0.9 -0.2,-1.6 -0.6,-2.2 -0.6,-0.8 -1.4,-1.2 -2.6,-1.2 z"
       id="path3233"
       style="fill:#1d1d1b" /><path
       d="m 202.2,288.8 c 1.3,0 2.1,0.5 2.7,1.4 0.3,0.6 0.5,1.3 0.5,2.2 v 4.6 h -0.5 v -4.6 c 0,-0.7 -0.1,-1.4 -0.4,-1.9 -0.4,-0.8 -1.2,-1.2 -2.2,-1.2 -1,0 -1.8,0.4 -2.2,1.2 -0.3,0.5 -0.4,1.2 -0.4,1.9 v 3.7 c 0,0.3 -0.1,0.5 -0.2,0.7 -0.2,0.2 -0.4,0.3 -0.6,0.3 H 198 v -0.5 h 0.7 c 0.1,0 0.2,0 0.2,-0.1 0.1,-0.1 0.1,-0.2 0.1,-0.3 V 290 c 0,-0.1 0,-0.2 -0.1,-0.3 -0.1,-0.1 -0.1,-0.1 -0.2,-0.1 H 198 V 289 h 0.7 c 0.2,0 0.4,0.1 0.6,0.3 0.2,0.2 0.2,0.4 0.2,0.7 v 0.2 c 0.6,-0.9 1.4,-1.4 2.7,-1.4 z"
       id="path3235"
       style="fill:#1d1d1b" /><path
       d="m 207.9,289.5 v 5.1 c 0,1.4 0.6,2.1 1.8,2.1 h 0.1 v 0.5 h -0.1 c -0.7,0 -1.3,-0.2 -1.7,-0.7 -0.4,-0.5 -0.6,-1.1 -0.6,-1.9 v -8.5 h 0.5 v 2.8 h 2 v 0.5 h -2 v 0.1 z"
       id="path3237"
       style="fill:#1d1d1b" /><path
       d="m 219.4,293.3 h -6.8 c 0.1,2.3 1.1,3.4 3.2,3.4 0.7,0 1.4,-0.2 1.9,-0.5 0.3,-0.2 0.5,-0.3 0.6,-0.5 0.1,-0.1 0.1,-0.2 0.1,-0.3 v -0.6 h 0.5 v 0.6 c 0,0.2 -0.1,0.4 -0.2,0.6 -0.1,0.2 -0.4,0.4 -0.7,0.6 -0.6,0.4 -1.3,0.6 -2.2,0.6 -1.2,0 -2.1,-0.4 -2.7,-1.1 -0.6,-0.7 -0.9,-1.7 -0.9,-3.1 0,-1 0.2,-1.9 0.6,-2.6 0.6,-1.1 1.6,-1.6 3.1,-1.6 1.5,0 2.5,0.5 3.1,1.6 0.4,0.7 0.6,1.6 0.6,2.6 v 0.3 h -0.2 z m -3.7,-4 c -1.2,0 -2,0.4 -2.5,1.2 -0.4,0.6 -0.6,1.3 -0.6,2.2 h 6.3 c 0,-0.9 -0.2,-1.6 -0.6,-2.2 -0.6,-0.8 -1.4,-1.2 -2.6,-1.2 z"
       id="path3239"
       style="fill:#1d1d1b" /><path
       d="m 225.7,288.8 v 0.5 h -0.1 c -1,0 -1.8,0.4 -2.2,1.2 -0.3,0.5 -0.4,1.1 -0.4,1.9 v 4.6 h -0.5 v -7 c 0,-0.1 0,-0.2 -0.1,-0.3 -0.1,-0.1 -0.1,-0.1 -0.2,-0.1 h -0.7 V 289 h 0.7 c 0.2,0 0.4,0.1 0.6,0.3 0.2,0.2 0.2,0.4 0.2,0.7 v 0.2 c 0.5,-0.9 1.4,-1.4 2.7,-1.4 l 0,0 0,0 z"
       id="path3241"
       style="fill:#1d1d1b" /><path
       d="m 235.5,288.8 c 1.4,0 2.5,0.5 3.1,1.6 0.4,0.7 0.6,1.6 0.6,2.6 0,1.4 -0.3,2.4 -0.9,3.1 -0.6,0.7 -1.5,1.1 -2.7,1.1 -1.2,0 -2.1,-0.4 -2.7,-1.1 -0.6,-0.7 -0.9,-1.7 -0.9,-3.1 0,-1 0.2,-1.9 0.6,-2.6 0.5,-1 1.5,-1.6 2.9,-1.6 z m 0,7.9 c 2.1,0 3.2,-1.2 3.2,-3.7 0,-0.9 -0.2,-1.6 -0.5,-2.2 -0.5,-0.9 -1.4,-1.4 -2.7,-1.4 -1.3,0 -2.1,0.5 -2.7,1.4 -0.3,0.6 -0.5,1.4 -0.5,2.2 0.1,2.5 1.1,3.7 3.2,3.7 z"
       id="path3243"
       style="fill:#1d1d1b" /><path
       d="m 244.4,285.6 c -0.7,0 -1.1,0.3 -1.4,0.9 -0.2,0.3 -0.2,0.7 -0.3,1 v 3.1 h 1.8 v 0.5 h -1.8 v 5 c 0,0.3 -0.1,0.5 -0.2,0.7 -0.2,0.2 -0.4,0.3 -0.6,0.3 h -0.7 v -0.5 h 0.7 c 0.1,0 0.2,0 0.2,-0.1 0.1,-0.1 0.1,-0.2 0.1,-0.3 v -8.6 c 0,-0.4 0.1,-0.8 0.3,-1.2 0.4,-0.8 1,-1.2 1.9,-1.2 h 0.1 l -0.1,0.4 0,0 z"
       id="path3245"
       style="fill:#1d1d1b" /><path
       d="M 259.5,286.6 V 286 c 0,-0.1 0,-0.1 -0.1,-0.2 -0.1,-0.1 -0.2,-0.1 -0.3,-0.1 h -5.6 v 4.9 h 5.4 v 0.5 h -5.4 v 5.5 h 5.6 c 0.1,0 0.2,0 0.3,-0.1 0.1,-0.1 0.1,-0.1 0.1,-0.2 v -0.7 h 0.5 v 0.7 c 0,0.2 -0.1,0.4 -0.3,0.6 -0.2,0.2 -0.4,0.2 -0.7,0.2 h -7.1 v -0.5 h 1 v -10.9 h -1 v -0.5 h 7.1 c 0.3,0 0.5,0.1 0.7,0.2 0.2,0.2 0.3,0.4 0.3,0.6 v 0.7 h -0.5 v -0.1 z"
       id="path3247"
       style="fill:#1d1d1b" /><path
       d="m 269.3,296.6 v 0.5 h -0.8 c -0.3,0 -0.6,-0.1 -0.7,-0.4 l -2.1,-3.3 -2.1,3.3 c -0.2,0.3 -0.4,0.4 -0.7,0.4 H 262 v -0.5 h 0.9 c 0.1,0 0.2,-0.1 0.3,-0.2 l 2.1,-3.4 0,0 0,0 -2,-3.3 c -0.1,-0.1 -0.2,-0.2 -0.3,-0.2 h -0.9 V 289 h 0.9 c 0.3,0 0.6,0.1 0.7,0.4 l 1.9,3.2 1.8,-3.2 c 0.2,-0.3 0.4,-0.4 0.7,-0.4 h 0.9 v 0.5 h -0.9 c -0.1,0 -0.2,0.1 -0.3,0.2 l -1.9,3.3 0,0 0,0 2.1,3.4 c 0.1,0.1 0.2,0.2 0.3,0.2 h 1 z"
       id="path3249"
       style="fill:#1d1d1b" /><path
       d="m 277.4,294.5 h 0.5 v 0.9 c 0,0.3 -0.1,0.5 -0.2,0.7 -0.1,0.2 -0.4,0.4 -0.7,0.6 -0.6,0.4 -1.3,0.5 -2.2,0.5 -1.2,0 -2.2,-0.4 -2.8,-1.3 -0.5,-0.7 -0.8,-1.7 -0.8,-2.8 0,-1.2 0.3,-2.1 0.8,-2.9 0.6,-0.9 1.6,-1.3 2.8,-1.3 0.9,0 1.6,0.2 2.2,0.5 0.3,0.2 0.5,0.4 0.7,0.6 0.1,0.2 0.2,0.5 0.2,0.7 v 0.9 h -0.5 v -0.9 c 0,-0.2 0,-0.3 -0.1,-0.4 -0.1,-0.1 -0.3,-0.3 -0.5,-0.5 -0.5,-0.3 -1.1,-0.4 -1.9,-0.4 -1.3,0 -2.1,0.5 -2.7,1.5 -0.3,0.6 -0.5,1.3 -0.5,2.2 0,0.8 0.2,1.5 0.5,2.1 0.5,1 1.4,1.5 2.7,1.5 0.7,0 1.4,-0.1 1.9,-0.4 0.3,-0.1 0.4,-0.3 0.5,-0.4 0.1,-0.1 0.1,-0.3 0.1,-0.4 v -1 z"
       id="path3251"
       style="fill:#1d1d1b" /><path
       d="m 287.4,293.3 h -6.8 c 0.1,2.3 1.1,3.4 3.2,3.4 0.7,0 1.4,-0.2 1.9,-0.5 0.3,-0.2 0.5,-0.3 0.6,-0.5 0.1,-0.1 0.1,-0.2 0.1,-0.3 v -0.6 h 0.5 v 0.6 c 0,0.2 -0.1,0.4 -0.2,0.6 -0.1,0.2 -0.4,0.4 -0.7,0.6 -0.6,0.4 -1.3,0.6 -2.2,0.6 -1.2,0 -2.1,-0.4 -2.7,-1.1 -0.6,-0.7 -0.9,-1.7 -0.9,-3.1 0,-1 0.2,-1.9 0.6,-2.6 0.6,-1.1 1.6,-1.6 3.1,-1.6 1.5,0 2.5,0.5 3.1,1.6 0.4,0.7 0.6,1.6 0.6,2.6 v 0.3 h -0.2 z m -3.7,-4 c -1.2,0 -2,0.4 -2.5,1.2 -0.4,0.6 -0.6,1.3 -0.6,2.2 h 6.3 c 0,-0.9 -0.2,-1.6 -0.6,-2.2 -0.6,-0.8 -1.4,-1.2 -2.6,-1.2 z"
       id="path3253"
       style="fill:#1d1d1b" /><path
       d="m 290.3,286.2 v 10.9 h -0.5 v -10.9 h 0.5 z"
       id="path3255"
       style="fill:#1d1d1b" /><path
       d="m 293.4,286.2 v 10.9 h -0.5 v -10.9 h 0.5 z"
       id="path3257"
       style="fill:#1d1d1b" /><path
       d="m 303.2,293.3 h -6.8 c 0.1,2.3 1.1,3.4 3.2,3.4 0.7,0 1.4,-0.2 1.9,-0.5 0.3,-0.2 0.5,-0.3 0.6,-0.5 0.1,-0.1 0.1,-0.2 0.1,-0.3 v -0.6 h 0.5 v 0.6 c 0,0.2 -0.1,0.4 -0.2,0.6 -0.1,0.2 -0.4,0.4 -0.7,0.6 -0.6,0.4 -1.3,0.6 -2.2,0.6 -1.2,0 -2.1,-0.4 -2.7,-1.1 -0.6,-0.7 -0.9,-1.7 -0.9,-3.1 0,-1 0.2,-1.9 0.6,-2.6 0.6,-1.1 1.6,-1.6 3.1,-1.6 1.5,0 2.5,0.5 3.1,1.6 0.4,0.7 0.6,1.6 0.6,2.6 v 0.3 h -0.2 z m -3.7,-4 c -1.2,0 -2,0.4 -2.5,1.2 -0.4,0.6 -0.6,1.3 -0.6,2.2 h 6.3 c 0,-0.9 -0.2,-1.6 -0.6,-2.2 -0.6,-0.8 -1.4,-1.2 -2.6,-1.2 z"
       id="path3259"
       style="fill:#1d1d1b" /><path
       d="m 309.4,288.8 c 1.3,0 2.1,0.5 2.7,1.4 0.3,0.6 0.5,1.3 0.5,2.2 v 4.6 h -0.5 v -4.6 c 0,-0.7 -0.1,-1.4 -0.4,-1.9 -0.4,-0.8 -1.2,-1.2 -2.2,-1.2 -1,0 -1.8,0.4 -2.2,1.2 -0.3,0.5 -0.4,1.2 -0.4,1.9 v 3.7 c 0,0.3 -0.1,0.5 -0.2,0.7 -0.2,0.2 -0.4,0.3 -0.6,0.3 h -0.7 v -0.5 h 0.7 c 0.1,0 0.2,0 0.2,-0.1 0.1,-0.1 0.1,-0.2 0.1,-0.3 V 290 c 0,-0.1 0,-0.2 -0.1,-0.3 -0.1,-0.1 -0.1,-0.1 -0.2,-0.1 h -0.7 V 289 h 0.7 c 0.2,0 0.4,0.1 0.6,0.3 0.2,0.2 0.2,0.4 0.2,0.7 v 0.2 c 0.4,-0.9 1.3,-1.4 2.5,-1.4 z"
       id="path3261"
       style="fill:#1d1d1b" /><path
       d="m 320.9,294.5 h 0.5 v 0.9 c 0,0.3 -0.1,0.5 -0.2,0.7 -0.1,0.2 -0.4,0.4 -0.7,0.6 -0.6,0.4 -1.3,0.5 -2.2,0.5 -1.2,0 -2.2,-0.4 -2.8,-1.3 -0.5,-0.7 -0.8,-1.7 -0.8,-2.8 0,-1.2 0.3,-2.1 0.8,-2.9 0.6,-0.9 1.6,-1.3 2.8,-1.3 0.9,0 1.6,0.2 2.2,0.5 0.3,0.2 0.5,0.4 0.7,0.6 0.1,0.2 0.2,0.5 0.2,0.7 v 0.9 h -0.5 v -0.9 c 0,-0.2 0,-0.3 -0.1,-0.4 -0.1,-0.1 -0.3,-0.3 -0.5,-0.5 -0.5,-0.3 -1.1,-0.4 -1.9,-0.4 -1.3,0 -2.1,0.5 -2.7,1.5 -0.3,0.6 -0.5,1.3 -0.5,2.2 0,0.8 0.2,1.5 0.5,2.1 0.5,1 1.4,1.5 2.7,1.5 0.7,0 1.4,-0.1 1.9,-0.4 0.3,-0.1 0.4,-0.3 0.5,-0.4 0.1,-0.1 0.1,-0.3 0.1,-0.4 v -1 z"
       id="path3263"
       style="fill:#1d1d1b" /><path
       d="M 330.9,293.3 H 324 c 0.1,2.3 1.1,3.4 3.2,3.4 0.7,0 1.4,-0.2 1.9,-0.5 0.3,-0.2 0.5,-0.3 0.6,-0.5 0.1,-0.1 0.1,-0.2 0.1,-0.3 v -0.6 h 0.5 v 0.6 c 0,0.2 -0.1,0.4 -0.2,0.6 -0.1,0.2 -0.4,0.4 -0.7,0.6 -0.6,0.4 -1.3,0.6 -2.2,0.6 -1.2,0 -2.1,-0.4 -2.7,-1.1 -0.6,-0.7 -0.9,-1.7 -0.9,-3.1 0,-1 0.2,-1.9 0.6,-2.6 0.6,-1.1 1.6,-1.6 3.1,-1.6 1.5,0 2.5,0.5 3.1,1.6 0.4,0.7 0.6,1.6 0.6,2.6 v 0.3 h -0.1 z m -3.7,-4 c -1.2,0 -2,0.4 -2.5,1.2 -0.4,0.6 -0.6,1.3 -0.6,2.2 h 6.3 c 0,-0.9 -0.2,-1.6 -0.6,-2.2 -0.6,-0.8 -1.5,-1.2 -2.6,-1.2 z"
       id="path3265"
       style="fill:#1d1d1b" /><path
       d="m 341.4,285.6 c -0.7,0 -1.1,0.3 -1.4,0.9 -0.2,0.3 -0.2,0.7 -0.3,1 v 3.1 h 1.8 v 0.5 h -1.8 v 5 c 0,0.3 -0.1,0.5 -0.2,0.7 -0.2,0.2 -0.4,0.3 -0.6,0.3 h -0.7 v -0.5 h 0.7 c 0.1,0 0.2,0 0.2,-0.1 0.1,-0.1 0.1,-0.2 0.1,-0.3 v -8.6 c 0,-0.4 0.1,-0.8 0.3,-1.2 0.4,-0.8 1,-1.2 1.9,-1.2 h 0.1 l -0.1,0.4 0,0 z"
       id="path3267"
       style="fill:#1d1d1b" /><path
       d="m 347.2,288.8 c 1.4,0 2.5,0.5 3.1,1.6 0.4,0.7 0.6,1.6 0.6,2.6 0,1.4 -0.3,2.4 -0.9,3.1 -0.6,0.7 -1.5,1.1 -2.7,1.1 -1.2,0 -2.1,-0.4 -2.7,-1.1 -0.6,-0.7 -0.9,-1.7 -0.9,-3.1 0,-1 0.2,-1.9 0.6,-2.6 0.4,-1 1.5,-1.6 2.9,-1.6 z m 0,7.9 c 2.1,0 3.2,-1.2 3.2,-3.7 0,-0.9 -0.2,-1.6 -0.5,-2.2 -0.5,-0.9 -1.4,-1.4 -2.7,-1.4 -1.3,0 -2.1,0.5 -2.7,1.4 -0.3,0.6 -0.5,1.4 -0.5,2.2 0,2.5 1.1,3.7 3.2,3.7 z"
       id="path3269"
       style="fill:#1d1d1b" /><path
       d="m 357.2,288.8 v 0.5 h -0.1 c -1,0 -1.8,0.4 -2.2,1.2 -0.3,0.5 -0.4,1.1 -0.4,1.9 V 297 H 354 v -7 c 0,-0.1 0,-0.2 -0.1,-0.3 -0.1,-0.1 -0.1,-0.1 -0.2,-0.1 H 353 V 289 h 0.7 c 0.2,0 0.4,0.1 0.6,0.3 0.2,0.2 0.2,0.4 0.2,0.7 v 0.2 c 0.5,-0.9 1.4,-1.4 2.7,-1.4 l 0,0 0,0 z"
       id="path3271"
       style="fill:#1d1d1b" /><path
       d="m 372.6,293.9 h 0.5 v 0.9 c 0,0.3 -0.1,0.5 -0.2,0.7 -0.2,0.3 -0.5,0.6 -0.9,0.9 -0.8,0.6 -1.7,0.8 -2.8,0.8 -1.6,0 -2.8,-0.6 -3.6,-1.9 -0.7,-1.1 -1,-2.5 -1,-4.2 0,-1.7 0.3,-3.1 1,-4.2 0.8,-1.3 2,-1.9 3.6,-1.9 1.1,0 2.1,0.3 2.8,0.8 0.4,0.3 0.7,0.6 0.9,0.9 0.1,0.2 0.2,0.5 0.2,0.7 v 0.9 h -0.5 v -0.9 c 0,-0.2 0,-0.3 -0.1,-0.5 -0.2,-0.3 -0.4,-0.5 -0.8,-0.7 -0.7,-0.5 -1.5,-0.7 -2.5,-0.7 -1.7,0 -2.8,0.8 -3.5,2.3 -0.4,0.9 -0.6,2 -0.6,3.3 0,1.3 0.2,2.3 0.6,3.3 0.7,1.5 1.9,2.3 3.5,2.3 1,0 1.8,-0.2 2.5,-0.7 0.4,-0.2 0.6,-0.5 0.7,-0.7 0.1,-0.1 0.1,-0.3 0.1,-0.5 l 0.1,-0.9 0,0 z"
       id="path3273"
       style="fill:#1d1d1b" /><path
       d="m 378.8,288.8 c 1.4,0 2.5,0.5 3.1,1.6 0.4,0.7 0.6,1.6 0.6,2.6 0,1.4 -0.3,2.4 -0.9,3.1 -0.6,0.7 -1.5,1.1 -2.7,1.1 -1.2,0 -2.1,-0.4 -2.7,-1.1 -0.6,-0.7 -0.9,-1.7 -0.9,-3.1 0,-1 0.2,-1.9 0.6,-2.6 0.5,-1 1.5,-1.6 2.9,-1.6 z m 0,7.9 c 2.1,0 3.2,-1.2 3.2,-3.7 0,-0.9 -0.2,-1.6 -0.5,-2.2 -0.5,-0.9 -1.4,-1.4 -2.7,-1.4 -1.3,0 -2.1,0.5 -2.7,1.4 -0.3,0.6 -0.5,1.4 -0.5,2.2 0.1,2.5 1.1,3.7 3.2,3.7 z"
       id="path3275"
       style="fill:#1d1d1b" /><path
       d="m 393.2,288.8 c 1.1,0 1.8,0.4 2.3,1.2 0.3,0.5 0.4,1.1 0.4,1.9 v 5.1 h -0.5 v -5.1 c 0,-0.6 -0.1,-1.2 -0.4,-1.6 -0.4,-0.7 -1,-1 -1.9,-1 -0.9,0 -1.5,0.3 -1.9,1 -0.2,0.4 -0.4,1 -0.4,1.6 v 5.1 h -0.5 v -5.1 c 0,-0.6 -0.1,-1.2 -0.4,-1.6 -0.4,-0.7 -1,-1 -1.9,-1 -0.9,0 -1.5,0.3 -1.9,1 -0.2,0.4 -0.4,1 -0.4,1.6 v 4.2 c 0,0.3 -0.1,0.5 -0.2,0.7 -0.2,0.2 -0.4,0.3 -0.6,0.3 h -0.7 v -0.5 h 0.7 c 0.1,0 0.2,0 0.2,-0.1 0.1,-0.1 0.1,-0.2 0.1,-0.3 V 290 c 0,-0.1 0,-0.2 -0.1,-0.3 -0.1,-0.1 -0.1,-0.1 -0.2,-0.1 h -0.7 V 289 h 0.7 c 0.2,0 0.4,0.1 0.6,0.3 0.2,0.2 0.2,0.4 0.3,0.7 0.5,-0.7 1.2,-1.1 2.2,-1.1 1.2,0 2.1,0.5 2.5,1.6 0.7,-1.1 1.5,-1.7 2.7,-1.7 z"
       id="path3277"
       style="fill:#1d1d1b" /><path
       d="m 402.7,288.8 c 1.4,0 2.5,0.5 3.1,1.6 0.4,0.7 0.6,1.6 0.6,2.6 0,1.4 -0.3,2.4 -0.9,3.1 -0.6,0.7 -1.5,1.1 -2.8,1.1 -1.5,0 -2.6,-0.6 -3.2,-1.7 v 4.4 c 0,0.3 -0.1,0.5 -0.2,0.7 -0.2,0.2 -0.4,0.3 -0.6,0.3 H 398 v -0.5 h 0.7 c 0.1,0 0.2,0 0.2,-0.1 0.1,-0.1 0.1,-0.2 0.1,-0.3 v -10 c 0,-0.1 0,-0.2 -0.1,-0.3 -0.1,-0.1 -0.1,-0.1 -0.2,-0.1 H 398 V 289 h 0.7 c 0.2,0 0.4,0.1 0.6,0.3 0.2,0.2 0.2,0.4 0.2,0.7 v 0.6 c 0.6,-1.2 1.7,-1.8 3.2,-1.8 z m 0,7.9 c 2.1,0 3.2,-1.2 3.2,-3.7 0,-0.9 -0.2,-1.6 -0.5,-2.3 -0.5,-0.9 -1.4,-1.4 -2.7,-1.4 -1.3,0 -2.1,0.5 -2.7,1.4 -0.3,0.6 -0.5,1.4 -0.5,2.3 0,2.5 1.1,3.7 3.2,3.7 z"
       id="path3279"
       style="fill:#1d1d1b" /><path
       d="m 415.1,289.5 c -0.1,0 -0.2,0 -0.2,0.1 -0.1,0.1 -0.1,0.2 -0.1,0.3 v 6.1 c 0,0.1 0,0.2 0.1,0.3 0.1,0.1 0.1,0.1 0.2,0.1 h 0.7 v 0.5 h -0.7 c -0.2,0 -0.4,-0.1 -0.6,-0.3 -0.2,-0.2 -0.2,-0.4 -0.2,-0.7 v -0.3 c -0.5,0.9 -1.4,1.4 -2.7,1.4 -1.3,0 -2.1,-0.5 -2.7,-1.4 -0.3,-0.6 -0.5,-1.3 -0.5,-2.2 V 289 h 0.5 v 4.6 c 0,0.7 0.1,1.4 0.4,1.9 0.4,0.8 1.2,1.2 2.2,1.2 1,0 1.8,-0.4 2.2,-1.2 0.3,-0.5 0.4,-1.1 0.4,-1.9 V 290 c 0,-0.3 0.1,-0.5 0.2,-0.7 0.2,-0.2 0.4,-0.3 0.6,-0.3 h 0.7 v 0.5 h -0.5 z"
       id="path3281"
       style="fill:#1d1d1b" /><path
       d="m 418.3,289.5 v 5.1 c 0,1.4 0.6,2.1 1.8,2.1 h 0.1 v 0.5 H 420 c -0.7,0 -1.3,-0.2 -1.7,-0.7 -0.4,-0.5 -0.6,-1.1 -0.6,-1.9 v -8.5 h 0.5 v 2.8 h 2 v 0.5 h -1.9 v 0.1 z"
       id="path3283"
       style="fill:#1d1d1b" /><path
       d="m 430.3,296.6 v 0.5 h -0.7 c -0.2,0 -0.4,-0.1 -0.6,-0.3 -0.2,-0.2 -0.2,-0.4 -0.2,-0.7 l 0,0 c -0.6,0.8 -1.6,1.1 -3,1.1 -2.3,0 -3.4,-1 -3.4,-2.9 0,-1 0.3,-1.7 0.8,-2.2 0.5,-0.5 1.4,-0.7 2.6,-0.7 1.5,0 2.5,0.3 3,1 v -0.7 c 0,-0.6 -0.2,-1.1 -0.5,-1.5 -0.5,-0.6 -1.3,-0.9 -2.4,-0.9 -0.7,0 -1.3,0.2 -1.9,0.5 -0.2,0.1 -0.2,0.2 -0.2,0.4 v 0.8 h -0.5 v -0.8 c 0,-0.4 0.2,-0.7 0.5,-0.9 0.6,-0.4 1.3,-0.5 2.1,-0.5 1.3,0 2.3,0.4 2.8,1.1 0.4,0.5 0.6,1.1 0.6,1.8 v 4.3 c 0,0.1 0,0.2 0.1,0.3 0.1,0.1 0.1,0.1 0.2,0.1 h 0.7 v 0.2 z m -4.6,0.1 c 2,0 3,-0.8 3,-2.3 0,-0.8 -0.2,-1.4 -0.6,-1.7 -0.4,-0.4 -1.2,-0.6 -2.4,-0.6 -1.2,0 -1.9,0.2 -2.4,0.7 -0.3,0.3 -0.5,0.9 -0.5,1.6 0,0.7 0.2,1.2 0.5,1.6 0.5,0.4 1.3,0.7 2.4,0.7 z"
       id="path3285"
       style="fill:#1d1d1b" /><path
       d="m 432.8,289.5 v 5.1 c 0,1.4 0.6,2.1 1.8,2.1 h 0.1 v 0.5 h -0.1 c -0.7,0 -1.3,-0.2 -1.7,-0.7 -0.4,-0.5 -0.6,-1.1 -0.6,-1.9 v -8.5 h 0.5 v 2.8 h 2 v 0.5 h -2 v 0.1 z"
       id="path3287"
       style="fill:#1d1d1b" /><path
       d="m 437.7,289 v 8.1 h -0.5 V 289 h 0.5 z"
       id="path3289"
       style="fill:#1d1d1b" /><path
       d="m 443.7,288.8 c 1.4,0 2.5,0.5 3.1,1.6 0.4,0.7 0.6,1.6 0.6,2.6 0,1.4 -0.3,2.4 -0.9,3.1 -0.6,0.7 -1.5,1.1 -2.7,1.1 -1.2,0 -2.1,-0.4 -2.7,-1.1 -0.6,-0.7 -0.9,-1.7 -0.9,-3.1 0,-1 0.2,-1.9 0.6,-2.6 0.4,-1 1.5,-1.6 2.9,-1.6 z m 0,7.9 c 2.1,0 3.2,-1.2 3.2,-3.7 0,-0.9 -0.2,-1.6 -0.5,-2.2 -0.5,-0.9 -1.4,-1.4 -2.7,-1.4 -1.3,0 -2.1,0.5 -2.7,1.4 -0.3,0.6 -0.5,1.4 -0.5,2.2 0,2.5 1.1,3.7 3.2,3.7 z"
       id="path3291"
       style="fill:#1d1d1b" /><path
       d="m 453.6,288.8 c 1.3,0 2.1,0.5 2.7,1.4 0.3,0.6 0.5,1.3 0.5,2.2 v 4.6 h -0.5 v -4.6 c 0,-0.7 -0.1,-1.4 -0.4,-1.9 -0.4,-0.8 -1.2,-1.2 -2.2,-1.2 -1,0 -1.8,0.4 -2.2,1.2 -0.3,0.5 -0.4,1.2 -0.4,1.9 v 3.7 c 0,0.3 -0.1,0.5 -0.2,0.7 -0.2,0.2 -0.4,0.3 -0.6,0.3 h -0.7 v -0.5 h 0.7 c 0.1,0 0.2,0 0.2,-0.1 0.1,-0.1 0.1,-0.2 0.1,-0.3 V 290 c 0,-0.1 0,-0.2 -0.1,-0.3 -0.1,-0.1 -0.1,-0.1 -0.2,-0.1 h -0.7 V 289 h 0.7 c 0.2,0 0.4,0.1 0.6,0.3 0.2,0.2 0.2,0.4 0.2,0.7 v 0.2 c 0.4,-0.9 1.2,-1.4 2.5,-1.4 z"
       id="path3293"
       style="fill:#1d1d1b" /><path
       d="m 466.7,296.6 v 0.5 H 466 c -0.2,0 -0.4,-0.1 -0.6,-0.3 -0.2,-0.2 -0.2,-0.4 -0.2,-0.7 l 0,0 c -0.6,0.8 -1.6,1.1 -3,1.1 -2.3,0 -3.4,-1 -3.4,-2.9 0,-1 0.3,-1.7 0.8,-2.2 0.5,-0.5 1.4,-0.7 2.6,-0.7 1.5,0 2.5,0.3 3,1 v -0.7 c 0,-0.6 -0.2,-1.1 -0.5,-1.5 -0.5,-0.6 -1.3,-0.9 -2.4,-0.9 -0.7,0 -1.3,0.2 -1.9,0.5 -0.2,0.1 -0.2,0.2 -0.2,0.4 v 0.8 h -0.5 v -0.8 c 0,-0.4 0.2,-0.7 0.5,-0.9 0.6,-0.4 1.3,-0.5 2.1,-0.5 1.3,0 2.3,0.4 2.8,1.1 0.4,0.5 0.6,1.1 0.6,1.8 v 4.3 c 0,0.1 0,0.2 0.1,0.3 0.1,0.1 0.1,0.1 0.2,0.1 h 0.7 v 0.2 z m -4.5,0.1 c 2,0 3,-0.8 3,-2.3 0,-0.8 -0.2,-1.4 -0.6,-1.7 -0.4,-0.4 -1.3,-0.6 -2.4,-0.6 -1.2,0 -2,0.2 -2.4,0.7 -0.3,0.3 -0.5,0.9 -0.5,1.6 0,0.7 0.2,1.2 0.5,1.6 0.4,0.4 1.2,0.7 2.4,0.7 z"
       id="path3295"
       style="fill:#1d1d1b" /><path
       d="m 469.6,286.2 v 10.9 H 469 v -10.9 h 0.6 z"
       id="path3297"
       style="fill:#1d1d1b" /><path
       d="m 483.8,290.8 c 0.6,0.2 1.2,0.7 1.5,1.3 0.3,0.6 0.5,1.2 0.5,1.8 0,0.9 -0.3,1.6 -0.8,2.2 -0.6,0.7 -1.3,1 -2.2,1 h -5.5 v -0.5 h 1 v -10.9 h -1 v -0.5 h 5.3 c 0.8,0 1.5,0.3 2,0.9 0.5,0.6 0.7,1.2 0.7,2 0,0.5 -0.1,1.1 -0.4,1.5 -0.3,0.5 -0.7,0.9 -1.1,1.2 z m -1.3,-0.2 c 0.7,0 1.2,-0.3 1.7,-0.8 0.4,-0.5 0.6,-1 0.6,-1.7 0,-0.6 -0.2,-1.2 -0.5,-1.7 -0.4,-0.5 -0.9,-0.8 -1.6,-0.8 h -3.8 v 4.9 h 3.6 v 0.1 z m 0.3,6 c 0.7,0 1.4,-0.3 1.8,-0.9 0.4,-0.5 0.7,-1.2 0.7,-1.9 0,-0.7 -0.2,-1.3 -0.7,-1.9 -0.5,-0.6 -1.1,-0.9 -1.9,-0.9 h -3.9 v 5.5 l 4,0.1 0,0 z"
       id="path3299"
       style="fill:#1d1d1b" /><path
       d="m 488.7,289 v 8.1 h -0.5 V 289 h 0.5 z"
       id="path3301"
       style="fill:#1d1d1b" /><path
       d="m 494.7,288.8 c 1.4,0 2.5,0.5 3.1,1.6 0.4,0.7 0.6,1.6 0.6,2.6 0,1.4 -0.3,2.4 -0.9,3.1 -0.6,0.7 -1.5,1.1 -2.7,1.1 -1.2,0 -2.1,-0.4 -2.7,-1.1 -0.6,-0.7 -0.9,-1.7 -0.9,-3.1 0,-1 0.2,-1.9 0.6,-2.6 0.4,-1 1.4,-1.6 2.9,-1.6 z m 0,7.9 c 2.1,0 3.2,-1.2 3.2,-3.7 0,-0.9 -0.2,-1.6 -0.5,-2.2 -0.5,-0.9 -1.4,-1.4 -2.7,-1.4 -1.3,0 -2.1,0.5 -2.7,1.4 -0.3,0.6 -0.5,1.4 -0.5,2.2 0,2.5 1.1,3.7 3.2,3.7 z"
       id="path3303"
       style="fill:#1d1d1b" /><path
       d="m 509.1,288.8 c 1.1,0 1.8,0.4 2.3,1.2 0.3,0.5 0.4,1.1 0.4,1.9 v 5.1 h -0.5 v -5.1 c 0,-0.6 -0.1,-1.2 -0.4,-1.6 -0.4,-0.7 -1,-1 -1.9,-1 -0.9,0 -1.5,0.3 -1.9,1 -0.2,0.4 -0.4,1 -0.4,1.6 v 5.1 h -0.5 v -5.1 c 0,-0.6 -0.1,-1.2 -0.4,-1.6 -0.4,-0.7 -1,-1 -1.9,-1 -0.9,0 -1.5,0.3 -1.9,1 -0.2,0.4 -0.4,1 -0.4,1.6 v 4.2 c 0,0.3 -0.1,0.5 -0.2,0.7 -0.2,0.2 -0.4,0.3 -0.6,0.3 h -0.7 v -0.5 h 0.7 c 0.1,0 0.2,0 0.2,-0.1 0.1,-0.1 0.1,-0.2 0.1,-0.3 V 290 c 0,-0.1 0,-0.2 -0.1,-0.3 -0.1,-0.1 -0.1,-0.1 -0.2,-0.1 h -0.7 V 289 h 0.7 c 0.2,0 0.4,0.1 0.6,0.3 0.2,0.2 0.2,0.4 0.3,0.7 0.5,-0.7 1.2,-1.1 2.2,-1.1 1.2,0 2.1,0.5 2.5,1.6 0.6,-1.1 1.5,-1.7 2.7,-1.7 z"
       id="path3305"
       style="fill:#1d1d1b" /><path
       d="m 517.5,288.8 c 1.4,0 2.5,0.5 3.1,1.6 0.4,0.7 0.6,1.6 0.6,2.6 0,1.4 -0.3,2.4 -0.9,3.1 -0.6,0.7 -1.5,1.1 -2.7,1.1 -1.2,0 -2.1,-0.4 -2.7,-1.1 -0.6,-0.7 -0.9,-1.7 -0.9,-3.1 0,-1 0.2,-1.9 0.6,-2.6 0.5,-1 1.5,-1.6 2.9,-1.6 z m 0,7.9 c 2.1,0 3.2,-1.2 3.2,-3.7 0,-0.9 -0.2,-1.6 -0.5,-2.2 -0.5,-0.9 -1.4,-1.4 -2.7,-1.4 -1.3,0 -2.1,0.5 -2.7,1.4 -0.3,0.6 -0.5,1.4 -0.5,2.2 0.1,2.5 1.1,3.7 3.2,3.7 z"
       id="path3307"
       style="fill:#1d1d1b" /><path
       d="m 524.1,286.2 v 10.9 h -0.5 v -10.9 h 0.5 z"
       id="path3309"
       style="fill:#1d1d1b" /><path
       d="M 533.9,293.3 H 527 c 0.1,2.3 1.1,3.4 3.2,3.4 0.7,0 1.4,-0.2 1.9,-0.5 0.3,-0.2 0.5,-0.3 0.6,-0.5 0.1,-0.1 0.1,-0.2 0.1,-0.3 v -0.6 h 0.5 v 0.6 c 0,0.2 -0.1,0.4 -0.2,0.6 -0.1,0.2 -0.4,0.4 -0.7,0.6 -0.6,0.4 -1.3,0.6 -2.2,0.6 -1.2,0 -2.1,-0.4 -2.7,-1.1 -0.6,-0.7 -0.9,-1.7 -0.9,-3.1 0,-1 0.2,-1.9 0.6,-2.6 0.6,-1.1 1.6,-1.6 3.1,-1.6 1.4,0 2.5,0.5 3.1,1.6 0.4,0.7 0.6,1.6 0.6,2.6 l -0.1,0.3 0,0 z m -3.7,-4 c -1.2,0 -2,0.4 -2.5,1.2 -0.4,0.6 -0.6,1.3 -0.6,2.2 h 6.3 c 0,-0.9 -0.2,-1.6 -0.6,-2.2 -0.6,-0.8 -1.4,-1.2 -2.6,-1.2 z"
       id="path3311"
       style="fill:#1d1d1b" /><path
       d="m 542.2,294.5 h 0.5 v 0.9 c 0,0.3 -0.1,0.5 -0.2,0.7 -0.1,0.2 -0.4,0.4 -0.7,0.6 -0.6,0.4 -1.3,0.5 -2.2,0.5 -1.2,0 -2.2,-0.4 -2.8,-1.3 -0.5,-0.7 -0.8,-1.7 -0.8,-2.8 0,-1.2 0.3,-2.1 0.8,-2.9 0.6,-0.9 1.6,-1.3 2.8,-1.3 0.9,0 1.6,0.2 2.2,0.5 0.3,0.2 0.5,0.4 0.7,0.6 0.1,0.2 0.2,0.5 0.2,0.7 v 0.9 h -0.5 v -0.9 c 0,-0.2 0,-0.3 -0.1,-0.4 -0.1,-0.1 -0.3,-0.3 -0.5,-0.5 -0.5,-0.3 -1.1,-0.4 -1.9,-0.4 -1.3,0 -2.1,0.5 -2.7,1.5 -0.3,0.6 -0.5,1.3 -0.5,2.2 0,0.8 0.2,1.5 0.5,2.1 0.5,1 1.4,1.5 2.7,1.5 0.7,0 1.4,-0.1 1.9,-0.4 0.3,-0.1 0.4,-0.3 0.5,-0.4 0.1,-0.1 0.1,-0.3 0.1,-0.4 v -1 z"
       id="path3313"
       style="fill:#1d1d1b" /><path
       d="m 551.4,289.5 c -0.1,0 -0.2,0 -0.2,0.1 -0.1,0.1 -0.1,0.2 -0.1,0.3 v 6.1 c 0,0.1 0,0.2 0.1,0.3 0.1,0.1 0.1,0.1 0.2,0.1 h 0.7 v 0.5 h -0.7 c -0.2,0 -0.4,-0.1 -0.6,-0.3 -0.2,-0.2 -0.2,-0.4 -0.2,-0.7 v -0.3 c -0.5,0.9 -1.4,1.4 -2.7,1.4 -1.3,0 -2.1,-0.5 -2.7,-1.4 -0.3,-0.6 -0.5,-1.3 -0.5,-2.2 V 289 h 0.5 v 4.6 c 0,0.7 0.1,1.4 0.4,1.9 0.4,0.8 1.2,1.2 2.2,1.2 1,0 1.8,-0.4 2.2,-1.2 0.3,-0.5 0.4,-1.1 0.4,-1.9 V 290 c 0,-0.3 0.1,-0.5 0.2,-0.7 0.2,-0.2 0.4,-0.3 0.6,-0.3 h 0.7 v 0.5 h -0.5 z"
       id="path3315"
       style="fill:#1d1d1b" /><path
       d="m 554.9,286.2 v 10.9 h -0.5 v -10.9 h 0.5 z"
       id="path3317"
       style="fill:#1d1d1b" /><path
       d="m 565.2,296.6 v 0.5 h -0.7 c -0.2,0 -0.4,-0.1 -0.6,-0.3 -0.2,-0.2 -0.2,-0.4 -0.2,-0.7 l 0,0 c -0.6,0.8 -1.6,1.1 -3,1.1 -2.3,0 -3.4,-1 -3.4,-2.9 0,-1 0.3,-1.7 0.8,-2.2 0.5,-0.5 1.4,-0.7 2.6,-0.7 1.5,0 2.5,0.3 3,1 v -0.7 c 0,-0.6 -0.2,-1.1 -0.5,-1.5 -0.5,-0.6 -1.3,-0.9 -2.4,-0.9 -0.7,0 -1.3,0.2 -1.9,0.5 -0.2,0.1 -0.2,0.2 -0.2,0.4 v 0.8 h -0.5 v -0.8 c 0,-0.4 0.2,-0.7 0.5,-0.9 0.6,-0.4 1.3,-0.5 2.1,-0.5 1.3,0 2.3,0.4 2.8,1.1 0.4,0.5 0.6,1.1 0.6,1.8 v 4.3 c 0,0.1 0,0.2 0.1,0.3 0.1,0.1 0.1,0.1 0.2,0.1 h 0.7 v 0.2 z m -4.5,0.1 c 2,0 3,-0.8 3,-2.3 0,-0.8 -0.2,-1.4 -0.6,-1.7 -0.4,-0.4 -1.3,-0.6 -2.4,-0.6 -1.2,0 -2,0.2 -2.4,0.7 -0.3,0.3 -0.5,0.9 -0.5,1.6 0,0.7 0.2,1.2 0.5,1.6 0.4,0.4 1.2,0.7 2.4,0.7 z"
       id="path3319"
       style="fill:#1d1d1b" /><path
       d="m 571.4,288.8 v 0.5 h -0.1 c -1,0 -1.8,0.4 -2.2,1.2 -0.3,0.5 -0.4,1.1 -0.4,1.9 v 4.6 h -0.5 v -7 c 0,-0.1 0,-0.2 -0.1,-0.3 -0.1,-0.1 -0.1,-0.1 -0.2,-0.1 h -0.7 V 289 h 0.7 c 0.2,0 0.4,0.1 0.6,0.3 0.2,0.2 0.2,0.4 0.2,0.7 v 0.2 c 0.5,-0.9 1.4,-1.4 2.7,-1.4 l 0,0 0,0 z"
       id="path3321"
       style="fill:#1d1d1b" /><path
       d="m 588.4,296.6 v 0.5 h -0.9 c -0.3,0 -0.6,-0.1 -0.8,-0.4 l -3,-4.9 h -3.4 v 4.4 c 0,0.3 -0.1,0.5 -0.2,0.7 -0.2,0.2 -0.4,0.3 -0.6,0.3 h -0.7 v -0.5 h 0.7 c 0.1,0 0.2,0 0.2,-0.1 0.1,-0.1 0.1,-0.2 0.1,-0.3 v -10.4 h -1 v -0.5 h 5.5 c 0.9,0 1.6,0.3 2.2,1 0.5,0.6 0.8,1.4 0.8,2.2 0,0.9 -0.3,1.6 -0.8,2.2 -0.6,0.7 -1.3,1 -2.2,1 l 0,0 2.8,4.7 c 0.1,0.1 0.2,0.2 0.3,0.2 h 1 v -0.1 z m -8.1,-5.4 h 4 c 0.7,0 1.4,-0.3 1.8,-0.9 0.4,-0.5 0.7,-1.2 0.7,-1.9 0,-0.7 -0.2,-1.3 -0.7,-1.9 -0.5,-0.6 -1.1,-0.9 -1.8,-0.9 h -4 v 5.6 z"
       id="path3323"
       style="fill:#1d1d1b" /><path
       d="m 597.7,293.3 h -6.8 c 0.1,2.3 1.1,3.4 3.2,3.4 0.7,0 1.4,-0.2 1.9,-0.5 0.3,-0.2 0.5,-0.3 0.6,-0.5 0.1,-0.1 0.1,-0.2 0.1,-0.3 v -0.6 h 0.5 v 0.6 c 0,0.2 -0.1,0.4 -0.2,0.6 -0.1,0.2 -0.4,0.4 -0.7,0.6 -0.6,0.4 -1.3,0.6 -2.2,0.6 -1.2,0 -2.1,-0.4 -2.7,-1.1 -0.6,-0.7 -0.9,-1.7 -0.9,-3.1 0,-1 0.2,-1.9 0.6,-2.6 0.6,-1.1 1.6,-1.6 3.1,-1.6 1.4,0 2.5,0.5 3.1,1.6 0.4,0.7 0.6,1.6 0.6,2.6 v 0.3 h -0.2 z m -3.7,-4 c -1.2,0 -2,0.4 -2.5,1.2 -0.4,0.6 -0.6,1.3 -0.6,2.2 h 6.3 c 0,-0.9 -0.2,-1.6 -0.6,-2.2 -0.6,-0.8 -1.4,-1.2 -2.6,-1.2 z"
       id="path3325"
       style="fill:#1d1d1b" /><path
       d="m 602.4,292.7 c 0.9,0.3 1.6,0.6 1.9,0.9 0.5,0.4 0.8,0.9 0.8,1.5 0,0.7 -0.2,1.3 -0.7,1.7 -0.5,0.4 -1.2,0.6 -2.1,0.6 -1,0 -1.7,-0.3 -2.3,-0.8 -0.1,-0.1 -0.2,-0.3 -0.2,-0.4 v -0.7 h 0.5 v 0.7 c 0,0 0,0 0,0.1 0.5,0.5 1.2,0.7 2,0.7 0.6,0 1.1,-0.1 1.5,-0.3 0.5,-0.3 0.8,-0.8 0.8,-1.4 0,-0.4 -0.2,-0.8 -0.6,-1.1 -0.3,-0.2 -0.9,-0.5 -1.8,-0.8 -0.9,-0.3 -1.5,-0.6 -1.9,-0.9 -0.4,-0.3 -0.6,-0.8 -0.6,-1.4 0,-0.7 0.2,-1.2 0.7,-1.5 0.5,-0.4 1.1,-0.5 1.9,-0.5 0.8,0 1.4,0.2 2,0.7 0.1,0.1 0.2,0.3 0.2,0.4 v 0.7 H 604 V 290 c 0,0 0,0 0,-0.1 -0.5,-0.4 -1,-0.6 -1.6,-0.6 -0.5,0 -1,0.1 -1.3,0.3 -0.5,0.3 -0.8,0.7 -0.8,1.3 0,0.4 0.2,0.7 0.5,1 0.2,0.2 0.7,0.5 1.6,0.8 z"
       id="path3327"
       style="fill:#1d1d1b" /><path
       d="m 614.6,293.3 h -6.8 c 0.1,2.3 1.1,3.4 3.2,3.4 0.7,0 1.4,-0.2 1.9,-0.5 0.3,-0.2 0.5,-0.3 0.6,-0.5 0.1,-0.1 0.1,-0.2 0.1,-0.3 v -0.6 h 0.5 v 0.6 c 0,0.2 -0.1,0.4 -0.2,0.6 -0.1,0.2 -0.4,0.4 -0.7,0.6 -0.6,0.4 -1.3,0.6 -2.2,0.6 -1.2,0 -2.1,-0.4 -2.7,-1.1 -0.6,-0.7 -0.9,-1.7 -0.9,-3.1 0,-1 0.2,-1.9 0.6,-2.6 0.6,-1.1 1.6,-1.6 3.1,-1.6 1.4,0 2.5,0.5 3.1,1.6 0.4,0.7 0.6,1.6 0.6,2.6 v 0.3 h -0.2 z m -3.7,-4 c -1.2,0 -2,0.4 -2.5,1.2 -0.4,0.6 -0.6,1.3 -0.6,2.2 h 6.3 c 0,-0.9 -0.2,-1.6 -0.6,-2.2 -0.6,-0.8 -1.4,-1.2 -2.6,-1.2 z"
       id="path3329"
       style="fill:#1d1d1b" /><path
       d="m 624.5,296.6 v 0.5 h -0.7 c -0.2,0 -0.4,-0.1 -0.6,-0.3 -0.2,-0.2 -0.2,-0.4 -0.2,-0.7 l 0,0 c -0.6,0.8 -1.6,1.1 -3,1.1 -2.3,0 -3.4,-1 -3.4,-2.9 0,-1 0.3,-1.7 0.8,-2.2 0.5,-0.5 1.4,-0.7 2.6,-0.7 1.5,0 2.5,0.3 3,1 v -0.7 c 0,-0.6 -0.2,-1.1 -0.5,-1.5 -0.5,-0.6 -1.3,-0.9 -2.4,-0.9 -0.7,0 -1.3,0.2 -1.9,0.5 -0.2,0.1 -0.2,0.2 -0.2,0.4 v 0.8 h -0.5 v -0.8 c 0,-0.4 0.2,-0.7 0.5,-0.9 0.6,-0.4 1.3,-0.5 2.1,-0.5 1.3,0 2.3,0.4 2.8,1.1 0.4,0.5 0.6,1.1 0.6,1.8 v 4.3 c 0,0.1 0,0.2 0.1,0.3 0.1,0.1 0.1,0.1 0.2,0.1 h 0.7 v 0.2 z m -4.5,0.1 c 2,0 3,-0.8 3,-2.3 0,-0.8 -0.2,-1.4 -0.6,-1.7 -0.4,-0.4 -1.3,-0.6 -2.4,-0.6 -1.2,0 -2,0.2 -2.4,0.7 -0.3,0.3 -0.5,0.9 -0.5,1.6 0,0.7 0.2,1.2 0.5,1.6 0.5,0.4 1.3,0.7 2.4,0.7 z"
       id="path3331"
       style="fill:#1d1d1b" /><path
       d="m 630.8,288.8 v 0.5 h -0.1 c -1,0 -1.8,0.4 -2.2,1.2 -0.3,0.5 -0.4,1.1 -0.4,1.9 v 4.6 h -0.5 v -7 c 0,-0.1 0,-0.2 -0.1,-0.3 -0.1,-0.1 -0.1,-0.1 -0.2,-0.1 h -0.7 V 289 h 0.7 c 0.2,0 0.4,0.1 0.6,0.3 0.2,0.2 0.2,0.4 0.2,0.7 v 0.2 c 0.5,-0.9 1.4,-1.4 2.7,-1.4 l 0,0 0,0 z"
       id="path3333"
       style="fill:#1d1d1b" /><path
       d="m 639.1,294.5 h 0.5 v 0.9 c 0,0.3 -0.1,0.5 -0.2,0.7 -0.1,0.2 -0.4,0.4 -0.7,0.6 -0.6,0.4 -1.3,0.5 -2.2,0.5 -1.2,0 -2.2,-0.4 -2.8,-1.3 -0.5,-0.7 -0.8,-1.7 -0.8,-2.8 0,-1.2 0.3,-2.1 0.8,-2.9 0.6,-0.9 1.6,-1.3 2.8,-1.3 0.9,0 1.6,0.2 2.2,0.5 0.3,0.2 0.5,0.4 0.7,0.6 0.1,0.2 0.2,0.5 0.2,0.7 v 0.9 h -0.5 v -0.9 c 0,-0.2 0,-0.3 -0.1,-0.4 -0.1,-0.1 -0.3,-0.3 -0.5,-0.5 -0.5,-0.3 -1.1,-0.4 -1.9,-0.4 -1.3,0 -2.1,0.5 -2.7,1.5 -0.3,0.6 -0.5,1.3 -0.5,2.2 0,0.8 0.2,1.5 0.5,2.1 0.5,1 1.4,1.5 2.7,1.5 0.7,0 1.4,-0.1 1.9,-0.4 0.3,-0.1 0.4,-0.3 0.5,-0.4 0.1,-0.1 0.1,-0.3 0.1,-0.4 v -1 z"
       id="path3335"
       style="fill:#1d1d1b" /><path
       d="m 645.8,288.8 c 1.3,0 2.1,0.5 2.7,1.4 0.3,0.6 0.5,1.3 0.5,2.2 v 4.6 h -0.5 v -4.6 c 0,-0.7 -0.1,-1.4 -0.4,-1.9 -0.4,-0.8 -1.2,-1.2 -2.2,-1.2 -1,0 -1.8,0.4 -2.2,1.2 -0.3,0.5 -0.4,1.2 -0.4,1.9 v 3.7 c 0,0.3 -0.1,0.5 -0.2,0.7 -0.2,0.2 -0.4,0.3 -0.6,0.3 h -0.7 v -0.5 h 0.7 c 0.1,0 0.2,0 0.2,-0.1 0.1,-0.1 0.1,-0.2 0.1,-0.3 v -9.9 c 0,-0.1 0,-0.2 -0.1,-0.3 -0.1,-0.1 -0.1,-0.1 -0.2,-0.1 h -0.7 v -0.5 h 0.7 c 0.2,0 0.4,0.1 0.6,0.3 0.2,0.2 0.2,0.4 0.2,0.7 v 4.1 c 0.4,-1.2 1.3,-1.7 2.5,-1.7 z"
       id="path3337"
       style="fill:#1d1d1b" /></g><path
     d="M 453.19998,68.9 V 34.6 c 0,-2.1 0.8,-3.9 2.3,-5.4 1.5,-1.5 3.3,-2.3 5.5,-2.3 h 3 v 4 h -3 c -0.8,0 -1.5,0.4 -2.1,1.1 -0.6,0.7 -0.8,1.6 -0.8,2.6 v 76.9 c 0,0.9 0.3,1.8 0.8,2.5 0.6,0.7 1.3,1.1 2.1,1.1 h 15.6 v 4.1 h -15.6 c -2.2,0 -4,-0.8 -5.5,-2.3 -1.5,-1.5 -2.3,-3.3 -2.3,-5.4 v -4.4 -38.2 z"
     id="path3339"
     style="fill:#717171" /></svg>