<?xml version="1.0" encoding="UTF-8" standalone="no"?>
<!-- Created with Inkscape (http://www.inkscape.org/) -->

<svg
   xmlns:dc="http://purl.org/dc/elements/1.1/"
   xmlns:cc="http://creativecommons.org/ns#"
   xmlns:rdf="http://www.w3.org/1999/02/22-rdf-syntax-ns#"
   xmlns:svg="http://www.w3.org/2000/svg"
   xmlns="http://www.w3.org/2000/svg"
   xmlns:sodipodi="http://sodipodi.sourceforge.net/DTD/sodipodi-0.dtd"
   xmlns:inkscape="http://www.inkscape.org/namespaces/inkscape"
   id="svg3406"
   version="1.1"
   inkscape:version="0.92.3 (2405546, 2018-03-11)"
   width="255.00612"
   height="176.50693"
   viewBox="0 0 255.00611 176.50693"
   sodipodi:docname="workflowhub-square.svg"
   inkscape:export-filename="/dropbox/Dropbox (The University of Manchester)/work/logo/workflowhub.png"
   inkscape:export-xdpi="155.11"
   inkscape:export-ydpi="155.11">
  <title
     id="title834">Workflow Hub logo</title>
  <metadata
     id="metadata3412">
    <rdf:RDF>
      <cc:Work
         rdf:about="">
        <dc:format>image/svg+xml</dc:format>
        <dc:type
           rdf:resource="http://purl.org/dc/dcmitype/StillImage" />
        <dc:title>Workflow Hub logo</dc:title>
        <cc:license
           rdf:resource="https://spdx.org/licenses/BSD-3-Clause" />
        <dc:creator>
          <cc:Agent>
            <dc:title>Finn Bacall</dc:title>
          </cc:Agent>
        </dc:creator>
        <dc:rights>
          <cc:Agent>
            <dc:title>The University of Manchester</dc:title>
          </cc:Agent>
        </dc:rights>
        <dc:publisher>
          <cc:Agent>
            <dc:title>The University of Manchester</dc:title>
          </cc:Agent>
        </dc:publisher>
        <dc:source>Based on recreation of https://www.eosc-life.eu/ logo</dc:source>
        <dc:date>2020-03-16</dc:date>
      </cc:Work>
    </rdf:RDF>
  </metadata>
  <defs
     id="defs3410" />
  <sodipodi:namedview
     pagecolor="#ffffff"
     bordercolor="#666666"
     borderopacity="1"
     objecttolerance="10"
     gridtolerance="10"
     guidetolerance="10"
     inkscape:pageopacity="0"
     inkscape:pageshadow="2"
     inkscape:window-width="1853"
     inkscape:window-height="1025"
     id="namedview3408"
     showgrid="false"
     inkscape:snap-intersection-paths="false"
     inkscape:object-paths="false"
     inkscape:zoom="1.1233333"
     inkscape:cx="336.14151"
     inkscape:cy="66.587116"
     inkscape:window-x="67"
     inkscape:window-y="27"
     inkscape:window-maximized="1"
     inkscape:current-layer="layer2"
     inkscape:object-nodes="false"
     inkscape:snap-smooth-nodes="false"
     inkscape:snap-midpoints="true"
     inkscape:snap-nodes="false"
     inkscape:snap-center="true"
     inkscape:snap-object-midpoints="true"
     fit-margin-top="2"
     fit-margin-left="2"
     fit-margin-right="2"
     fit-margin-bottom="2"
     showguides="false" />
  <g
     inkscape:groupmode="layer"
     id="layer1"
     inkscape:label="EOSC Cloud"
     style="display:inline"
     transform="translate(-3.4144231,-101.1942)">
    <path
       style="display:inline;opacity:1;fill:#1f8787;fill-opacity:1;fill-rule:evenodd;stroke:none;stroke-width:1px;stroke-linecap:butt;stroke-linejoin:miter;stroke-opacity:1"
       d="m 72.873267,152.72944 a 28.096702,28.518926 0 0 0 -13.384761,3.81383 28.096702,28.518926 0 0 0 -14.048666,24.69738 v 9.04504 H 34.609566 a 29.194542,27.982157 0 0 0 -25.283547,13.99063 29.194542,27.982157 0 0 0 0,27.98305 A 29.194542,27.982157 0 0 0 34.609566,246.25 H 101.63264 V 181.24065 A 28.096702,28.518926 0 0 0 87.583971,156.54327 28.096702,28.518926 0 0 0 72.873267,152.72944 Z"
       id="path3416"
       inkscape:connector-curvature="0" />
    <path
       inkscape:connector-curvature="0"
       style="display:inline;opacity:1;fill:#f9b233;fill-opacity:1;fill-rule:evenodd;stroke:none;stroke-width:1px;stroke-linecap:butt;stroke-linejoin:miter;stroke-opacity:1"
       d="M 256.40859,203.49097 A 43.206872,41.773753 0 0 0 250.63054,183.59072 43.206872,41.773753 0 0 0 213.2134,162.7034 h -13.70345 v -16.10231 a 42.393656,43.406003 0 0 0 -21.19616,-37.59119 42.393656,43.406003 0 0 0 -42.39501,0 42.393656,43.406003 0 0 0 -21.19614,37.59119 V 246.25 h 98.49076 a 43.206872,41.773753 0 0 0 37.41714,-20.88733 43.206872,41.773753 0 0 0 5.77805,-21.8717 z"
       id="path3416-7" />
  </g>
  <g
     inkscape:groupmode="layer"
     id="layer3"
     inkscape:label="Cog"
     style="display:inline"
     transform="translate(-3.4144231,-101.1942)">
    <path
       style="opacity:0.67000002;fill:#7f5304;fill-opacity:1;stroke:none"
       d="m 175.19114,164.14486 -5.74054,14.52475 a 42.88241,42.88241 0 0 0 -9.51119,3.9281 l -14.31704,-6.20456 -8.17779,8.17783 6.21293,14.33544 a 42.88241,42.88241 0 0 0 -3.97502,9.50783 l -14.4862,5.72548 v 11.56653 l 14.52473,5.74055 a 42.88241,42.88241 0 0 0 3.9281,9.51118 l -6.20454,14.31535 8.17779,8.17949 14.33379,-6.21292 a 42.88241,42.88241 0 0 0 9.50952,3.97501 l 5.72546,14.4862 h 11.56652 l 5.73888,-14.52307 a 42.88241,42.88241 0 0 0 9.51117,-3.92977 l 14.31704,6.20455 8.17949,-8.17949 -6.21293,-14.33377 a 42.88241,42.88241 0 0 0 3.97501,-9.50784 l 14.48452,-5.72547 v -11.56653 l -14.52305,-5.74056 a 42.88241,42.88241 0 0 0 -3.9281,-9.50949 l 6.20455,-14.3187 -8.17949,-8.17783 -14.33378,6.21294 a 42.88241,42.88241 0 0 0 -9.50951,-3.97501 l -5.7238,-14.48622 z m 4.8427,30.06629 a 25.729446,25.729446 0 0 1 18.1798,6.61158 25.729446,25.729446 0 0 1 1.86103,36.33949 25.729446,25.729446 0 0 1 -36.33951,1.86104 25.729446,25.729446 0 0 1 -1.86101,-36.33949 25.729446,25.729446 0 0 1 18.15969,-8.47262 z"
       id="path4405"
       inkscape:connector-curvature="0" />
  </g>
  <g
     inkscape:groupmode="layer"
     id="layer2"
     inkscape:label="Text"
     style="display:inline"
     transform="translate(-3.4144231,10.055809)" />
</svg>
