<svg width="575" height="396" xmlns="http://www.w3.org/2000/svg" version="1.1">
 <title id="title918">WorkflowHub logo (square)</title>
 <metadata id="metadata3412">image/svg+xmlWorkflowHub logo (square)2020-09-23Finn Bacall, Stian Soiland-ReyesThe University of Manchester</metadata>

 <g>
  <title>Layer 1</title>
  <g display="inline"  id="layer1" >
   <path stroke-width="1px" fill-rule="evenodd" fill="#1f8787"  id="path3416" d="m155.40636,114.44711a63.78977,64.74837 0 0 0 -30.38831,8.65879a63.78977,64.74837 0 0 0 -31.89558,56.07207l0,20.53555l-24.5887,0a66.28227,63.52971 0 0 0 -57.40288,31.76384a66.28227,63.52971 0 0 0 0,63.53174a66.28227,63.52971 0 0 0 57.40287,31.76384l152.16687,0l0,-147.59497a63.78977,64.74837 0 0 0 -31.89562,-56.07207a63.78977,64.74837 0 0 0 -33.39865,-8.65879z"/>
   <path stroke-width="1px" fill-rule="evenodd" fill="#f9b233" id="path3416-7" d="m572.09853,229.69433a98.09537,94.84166 0 0 0 -13.11829,-45.18083a98.09537,94.84166 0 0 0 -84.95056,-47.42185l-31.11183,0l0,-36.55812a96.24907,98.54747 0 0 0 -48.12302,-85.34572a96.24907,98.54747 0 0 0 -96.25215,0a96.24907,98.54747 0 0 0 -48.12298,85.34572l0,226.23941l223.60998,0a98.09537,94.84166 0 0 0 84.95056,-47.42187a98.09537,94.84166 0 0 0 13.11829,-49.65674z" />
  </g>
  <g display="inline"  id="layer3" >
   <path fill="#7f5304" opacity="0.67"  id="path4405" d="m387.70528,140.36428l-13.03314,32.9765a97.35872,97.35872 0 0 0 -21.59386,8.91823l-32.50492,-14.08663l-18.56656,18.56666l14.10562,32.54669a97.35872,97.35872 0 0 0 -9.02475,21.58624l-32.88896,12.99893l0,26.26024l32.97643,13.03315a97.35872,97.35872 0 0 0 8.91824,21.59386l-14.08658,32.50106l18.56656,18.57042l32.54294,-14.10559a97.35872,97.35872 0 0 0 21.59009,9.02472l12.99889,32.88896l26.26021,0l13.02935,-32.97266a97.35872,97.35872 0 0 0 21.59384,-8.92201l32.50489,14.08658l18.57044,-18.57042l-14.10562,-32.54289a97.35872,97.35872 0 0 0 9.02472,-21.58627l32.88515,-12.99891l0,-26.26024l-32.97263,-13.03317a97.35872,97.35872 0 0 0 -8.91821,-21.59001l14.08659,-32.50868l-18.57044,-18.56666l-32.5429,14.10565a97.35872,97.35872 0 0 0 -21.59006,-9.02474l-12.99512,-32.88901l-26.26021,0zm10.99468,68.26147a58.41523,58.41523 0 0 1 41.27478,15.0107a58.41523,58.41523 0 0 1 4.22523,82.50391a58.41523,58.41523 0 0 1 -82.50395,4.22524a58.41523,58.41523 0 0 1 -4.22518,-82.50391a58.41523,58.41523 0 0 1 41.22912,-19.23594z"/>
  </g>
 </g>
</svg>