<?xml version="1.0" encoding="UTF-8" standalone="no"?>
<svg
   viewBox="0 0 260.34238 63"
   version="1.1"
   id="svg51"
   sodipodi:docname="by-covid.svg"
   width="260.34238"
   height="63"
   inkscape:version="1.1.2 (0a00cf5339, 2022-02-04)"
   xmlns:inkscape="http://www.inkscape.org/namespaces/inkscape"
   xmlns:sodipodi="http://sodipodi.sourceforge.net/DTD/sodipodi-0.dtd"
   xmlns="http://www.w3.org/2000/svg"
   xmlns:svg="http://www.w3.org/2000/svg">
  <sodipodi:namedview
     id="namedview53"
     pagecolor="#ffffff"
     bordercolor="#666666"
     borderopacity="1.0"
     inkscape:pageshadow="2"
     inkscape:pageopacity="0.0"
     inkscape:pagecheckerboard="0"
     showgrid="false"
     fit-margin-top="0"
     fit-margin-left="0"
     fit-margin-right="0"
     fit-margin-bottom="0"
     inkscape:zoom="2.52"
     inkscape:cx="117.2619"
     inkscape:cy="31.150794"
     inkscape:window-width="2486"
     inkscape:window-height="1376"
     inkscape:window-x="0"
     inkscape:window-y="0"
     inkscape:window-maximized="1"
     inkscape:current-layer="svg51" />
  <defs
     id="defs4">
    <style
       id="style2">.cls-1{fill:#db316c;}.cls-2{fill:#1d1d1d;}.cls-3{fill:#4b9bd9;}.cls-4{fill:#6f6f6e;}</style>
  </defs>
  <g
     id="Main_layer"
     data-name="Main layer"
     transform="translate(-119.83,-43.5)">
    <path
       class="cls-1"
       d="m 161.2,92.45 c -0.12,0 -0.37,0.11 -0.53,0.69 A 30.8,30.8 0 0 0 160,98 c -0.16,0.72 -1.28,1.67 -2.21,1.12 a 11.36,11.36 0 0 0 -1.78,-0.86 11.88,11.88 0 0 0 -1.89,-0.6 c -1.06,-0.24 -1.23,-1.69 -0.85,-2.33 a 30.09,30.09 0 0 0 2.83,-4 c 0.29,-0.54 0.16,-0.79 0.08,-0.88 a 18.48,18.48 0 0 1 -1.89,-1.22 c -0.12,0 -0.4,0 -0.77,0.43 a 30,30 0 0 0 -2.44,4.21 c -0.42,0.6 -1.82,1.06 -2.47,0.19 a 11.56,11.56 0 0 0 -1.33,-1.47 10.94,10.94 0 0 0 -1.5,-1.28 1.65,1.65 0 0 1 0.1,-2.47 30.55,30.55 0 0 0 4.12,-2.56 c 0.47,-0.4 0.45,-0.67 0.41,-0.79 a 16.9,16.9 0 0 1 -1.28,-1.85 c -0.1,-0.08 -0.35,-0.2 -0.88,0.1 a 30.19,30.19 0 0 0 -3.86,3 1.66,1.66 0 0 1 -2.36,-0.77 11.54,11.54 0 0 0 -0.66,-1.87 11.19,11.19 0 0 0 -0.91,-1.76 c -0.57,-0.92 0.34,-2.06 1.05,-2.24 a 30.07,30.07 0 0 0 4.8,-0.8 c 0.57,-0.17 0.66,-0.42 0.67,-0.55 a 18,18 0 0 1 -0.46,-2.21 c -0.06,-0.11 -0.24,-0.32 -0.86,-0.24 a 31.07,31.07 0 0 0 -4.7,1.25 c -0.72,0.13 -2,-0.54 -1.87,-1.62 a 11.43,11.43 0 0 0 0.1,-2 11.75,11.75 0 0 0 -0.16,-2 c -0.2,-1.06 1.09,-1.77 1.82,-1.67 a 31,31 0 0 0 4.74,1.11 c 0.61,0.05 0.79,-0.17 0.84,-0.27 a 17.75,17.75 0 0 1 0.4,-2.22 c 0,-0.13 -0.12,-0.38 -0.69,-0.55 a 31.72,31.72 0 0 0 -4.82,-0.63 c -0.72,-0.16 -1.67,-1.28 -1.12,-2.22 a 11.32,11.32 0 0 0 0.85,-1.78 10.49,10.49 0 0 0 0.6,-1.88 c 0.24,-1.07 1.7,-1.23 2.33,-0.85 a 31.86,31.86 0 0 0 4.02,2.84 c 0.55,0.28 0.79,0.16 0.88,0.07 a 19.09,19.09 0 0 1 1.2,-1.88 c 0,-0.11 0,-0.39 -0.43,-0.77 a 32.47,32.47 0 0 0 -4.21,-2.43 1.65,1.65 0 0 1 -0.19,-2.47 14.24,14.24 0 0 0 2.75,-2.85 c 0.62,-0.89 2,-0.48 2.47,0.11 a 31.2,31.2 0 0 0 2.53,4.13 c 0.39,0.47 0.67,0.44 0.78,0.4 a 21.86,21.86 0 0 1 1.86,-1.28 c 0.07,-0.09 0.2,-0.34 -0.11,-0.87 a 29.94,29.94 0 0 0 -2.95,-3.87 c -0.4,-0.61 -0.28,-2.08 0.77,-2.35 a 11.11,11.11 0 0 0 1.87,-0.66 11.89,11.89 0 0 0 1.75,-0.9 c 0.92,-0.59 2.07,0.33 2.25,1 a 30.93,30.93 0 0 0 0.79,4.8 c 0.17,0.56 0.43,0.66 0.56,0.67 a 20,20 0 0 1 2.2,-0.47 c 0.12,0 0.33,-0.24 0.26,-0.85 a 30.77,30.77 0 0 0 -1.26,-4.7 c -0.14,-0.72 0.53,-2 1.61,-1.88 a 16.81,16.81 0 0 0 3.88,-0.17 c 1.07,-0.19 1.78,1.1 1.67,1.82 a 31.21,31.21 0 0 0 -1.1,4.75 c -0.06,0.6 0.16,0.78 0.27,0.83 0.53,0.07 1,0.18 1.56,0.28 l 1.8,-10.21 H 130.2 l -10.37,58.69 h 41.3 l 1.77,-10 c -0.57,-0.08 -1.14,-0.17 -1.7,-0.3 z"
       id="path6" />
    <path
       class="cls-2"
       d="m 200.05,44.1 h 12.32 c 6.63,0 9.62,3.64 8.61,9.5 l -0.66,3.83 a 8.44,8.44 0 0 1 -5.5,6.93 l -0.06,0.24 c 1.79,0.66 4.06,2.69 3.17,7.66 l -0.54,3.11 c -1.14,6.51 -5.14,9.32 -11.18,9.32 h -13.33 z m 2.57,33.18 h 2.75 c 2.27,0 3.65,-1.2 4.13,-4 l 0.42,-1.91 c 0.47,-2.81 -0.78,-3.83 -2.69,-3.83 h -2.93 z m 2.81,-16.14 h 2.81 c 1.86,0 3.41,-1 3.83,-3.59 l 0.42,-2.39 c 0.41,-2.33 -0.54,-3.47 -2.81,-3.47 h -2.57 z"
       id="path8" />
    <path
       class="cls-2"
       d="m 237,66.94 -3.11,17.75 h -8.37 l 3.11,-17.58 -5.38,-23 h 9.14 l 2.1,13.89 7.35,-13.93 h 8.31 z"
       id="path10" />
    <path
       class="cls-2"
       d="m 240.88,64.6 h 15.3 l -1.13,6.16 H 239.8 Z"
       id="path12" />
    <path
       class="cls-2"
       d="m 282.73,70 -0.54,2.93 c -1.5,8.43 -6.46,12.38 -13,12.38 -6.88,0 -11.9,-4 -10.29,-13.15 l 2.87,-16.26 c 1.5,-8.37 6.16,-12.38 13,-12.38 6.57,0 11.89,4 10.34,12.85 l -0.48,2.51 -7.11,0.48 0.35,-2.45 c 0.72,-3.64 -0.65,-5.14 -3,-5.14 -2.35,0 -4.19,1.5 -4.85,5.14 l -2.63,14.89 c -0.66,3.82 0.72,5.26 3.05,5.26 2.33,0 4.13,-1.44 4.84,-5.26 l 0.42,-2.33 z"
       id="path14" />
    <path
       class="cls-2"
       d="m 312.92,56.59 -2.87,16.32 c -1.44,8.43 -6.76,12.38 -13.69,12.38 -6.93,0 -12.5,-4 -10.95,-13.15 l 2.87,-16.26 c 1.5,-8.37 6.82,-12.38 13.75,-12.38 6.93,0 12.5,4.01 10.89,13.09 z m -16.33,0.3 -2.69,14.89 c -0.65,3.82 0.72,5.26 3.05,5.26 2.33,0 4.19,-1.44 4.85,-5.26 l 2.63,-14.89 c 0.65,-3.64 -0.72,-5.14 -3,-5.14 -2.28,0 -4.24,1.5 -4.84,5.14 z"
       id="path16" />
    <path
       class="cls-2"
       d="m 334.62,44.1 h 7.89 l -15.07,40.59 h -10 L 316.38,44.1 h 9.21 l -0.18,26.42 z"
       id="path18" />
    <path
       class="cls-2"
       d="m 353.74,44.1 -7.17,40.59 h -8.37 l 7.17,-40.59 z"
       id="path20" />
    <path
       class="cls-2"
       d="m 351.47,84.69 7.17,-40.59 h 10.94 c 6.88,0 11.9,3.64 10.29,12.61 l -2.81,16 c -1.5,8.42 -6,12 -12.86,12 z M 364,76.8 c 2.34,0 4.19,-1.43 4.85,-5.26 l 2.57,-14.41 c 0.6,-3.65 -0.72,-5.14 -3.05,-5.14 h -2.67 l -4.43,24.81 z"
       id="path22" />
    <polygon
       class="cls-1"
       points="190.86,44.1 180.49,102.78 186.37,102.78 196.75,44.1 "
       id="polygon24" />
    <path
       class="cls-3"
       d="m 183.28,73.44 a 2.7,2.7 0 0 1 -0.21,1 v 0 a 2.88,2.88 0 0 1 -0.24,0.46 v 0 a 3,3 0 0 1 -0.35,0.43 L 172.86,85 a 2.75,2.75 0 0 1 -3.86,0 2.71,2.71 0 0 1 0,-3.85 l 5,-5 h -21.28 a 2.72,2.72 0 0 1 0,-5.44 H 174 l -5,-5 a 2.7223611,2.7223611 0 0 1 3.85,-3.85 l 9.61,9.62 a 3.54,3.54 0 0 1 0.35,0.42 c 0,0 0,0 0,0 a 2.42,2.42 0 0 1 0.24,0.45 v 0 a 2.61,2.61 0 0 1 0.23,1.09 z"
       id="path26" />
    <path
       class="cls-4"
       d="m 192.58,101.63 -0.21,1.16 h -1.65 l 2.48,-14 h 1.65 L 194,93.62 a 2.31,2.31 0 0 1 2,-1.15 c 1.49,0 2.48,1 2.09,3.22 l -0.72,4.19 c -0.38,2 -1.43,3.11 -2.91,3.11 a 1.81,1.81 0 0 1 -1.88,-1.36 z m 3.15,-1.9 0.71,-4 c 0.2,-1.16 -0.23,-1.8 -1.1,-1.8 -0.87,0 -1.52,0.64 -1.73,1.82 l -0.68,3.92 c -0.21,1.16 0.22,1.77 1.09,1.77 0.87,0 1.53,-0.57 1.71,-1.71 z"
       id="path28" />
    <path
       class="cls-4"
       d="m 213.63,99.42 v 0.25 c -0.37,2.17 -1.51,3.32 -3.36,3.32 -2,0 -3,-1.26 -2.65,-3.28 l 0.71,-4 c 0.3,-1.72 1.27,-3.22 3.38,-3.22 2.11,0 2.91,1.48 2.6,3.26 L 213.88,98 h -4.32 l -0.33,1.83 c -0.2,1.18 0.25,1.78 1.1,1.78 0.85,0 1.53,-0.62 1.73,-1.76 l 0.11,-0.55 z m -1.07,-2.66 0.22,-1.2 c 0.19,-1.09 -0.22,-1.77 -1.11,-1.77 -0.89,0 -1.51,0.64 -1.71,1.79 l -0.21,1.18 z"
       id="path30" />
    <path
       class="cls-4"
       d="m 229.22,92.67 h 1.67 l -6.11,13.83 H 223 l 2.27,-4.56 -1.19,-9.27 h 1.69 l 0.6,6.85 z"
       id="path32" />
    <path
       class="cls-4"
       d="m 239.06,99.67 0.7,-3.92 c 0.4,-2.21 1.74,-3.28 3.47,-3.28 1.73,0 3.08,1.07 2.66,3.34 l -0.7,3.94 c -0.37,2.19 -1.71,3.24 -3.44,3.24 -1.73,0 -3.08,-1.05 -2.69,-3.32 z m 4.48,0.06 0.7,-4 c 0.21,-1.16 -0.22,-1.8 -1.11,-1.8 -0.89,0 -1.49,0.64 -1.69,1.82 l -0.71,3.92 c -0.2,1.16 0.23,1.77 1.08,1.77 0.85,0 1.55,-0.57 1.73,-1.71 z"
       id="path34" />
    <path
       class="cls-4"
       d="m 258.46,92.67 -0.18,1 a 2.61,2.61 0 0 1 2.21,-1.21 c 1.46,0 2.27,1 1.92,3 l -1.3,7.31 h -1.66 l 1.24,-7 c 0.21,-1.14 0,-1.8 -0.93,-1.8 a 2,2 0 0 0 -1.85,1.82 l -1.24,7 H 255 l 1.79,-10.12 z"
       id="path36" />
    <path
       class="cls-4"
       d="m 272,99.79 0.74,-4.19 c 0.37,-2.06 1.42,-3.13 2.93,-3.13 a 1.83,1.83 0 0 1 1.9,1.32 l 0.86,-5 h 1.66 l -2.46,14 H 276 l 0.18,-1 a 2.4,2.4 0 0 1 -2,1.18 c -1.55,0.03 -2.55,-1.05 -2.18,-3.18 z m 4.49,-0.08 0.71,-3.92 c 0.2,-1.18 -0.21,-1.82 -1.08,-1.82 -0.87,0 -1.54,0.64 -1.75,1.8 l -0.7,4 c -0.19,1.14 0.24,1.75 1.13,1.75 0.89,0 1.48,-0.65 1.68,-1.81 z"
       id="path38" />
    <path
       class="cls-4"
       d="m 306.27,99.17 -0.06,0.27 c -0.41,2.44 -1.55,3.55 -3.41,3.55 -2.21,0 -2.87,-1.61 -2.58,-3.28 l 0.73,-4 c 0.3,-1.76 1.25,-3.28 3.34,-3.28 1.71,0 3,1 2.58,3.3 l -0.1,0.58 -1.47,0.16 0.12,-0.74 c 0.21,-1.14 -0.22,-1.8 -1.09,-1.8 -0.87,0 -1.51,0.64 -1.71,1.82 l -0.71,3.92 c -0.2,1.16 0.23,1.77 1.08,1.77 0.85,0 1.55,-0.61 1.73,-1.75 l 0.15,-0.72 z"
       id="path40" />
    <path
       class="cls-4"
       d="m 316.16,99.67 0.7,-3.92 c 0.39,-2.21 1.73,-3.28 3.47,-3.28 1.74,0 3.07,1.07 2.66,3.34 l -0.7,3.94 c -0.37,2.19 -1.72,3.24 -3.45,3.24 -1.73,0 -3.07,-1.05 -2.68,-3.32 z m 4.48,0.06 0.7,-4 c 0.21,-1.16 -0.23,-1.8 -1.12,-1.8 -0.89,0 -1.48,0.64 -1.69,1.82 l -0.7,3.92 c -0.21,1.16 0.23,1.77 1.07,1.77 0.84,0 1.55,-0.57 1.74,-1.71 z"
       id="path42" />
    <path
       class="cls-4"
       d="m 333,92.67 h 1.74 l 0.26,7.8 3.06,-7.8 h 1.73 l -4.31,10.12 h -1.78 z"
       id="path44" />
    <path
       class="cls-4"
       d="m 349.66,92.67 h 1.67 l -1.77,10.12 h -1.68 z m 0.72,-4 H 352 l -0.31,1.9 H 350 Z"
       id="path46" />
    <path
       class="cls-4"
       d="m 360.48,99.79 0.74,-4.19 c 0.37,-2.06 1.42,-3.13 2.93,-3.13 a 1.83,1.83 0 0 1 1.9,1.32 l 0.87,-5 h 1.65 l -2.46,14 h -1.65 l 0.19,-1 a 2.43,2.43 0 0 1 -2,1.18 c -1.53,0.03 -2.52,-1.05 -2.17,-3.18 z m 4.5,-0.08 0.7,-3.92 c 0.2,-1.18 -0.21,-1.82 -1.08,-1.82 -0.87,0 -1.54,0.64 -1.75,1.8 l -0.7,4 c -0.19,1.14 0.25,1.75 1.13,1.75 0.88,0 1.49,-0.65 1.72,-1.81 z"
       id="path48" />
  </g>
</svg>
