<svg xmlns="http://www.w3.org/2000/svg" viewBox="0 0 500 150"><defs><style>.cls-1{fill:#db316c;}.cls-2{fill:#1d1d1d;}.cls-3{fill:#4b9bd9;}.cls-4{fill:#6f6f6e;}</style></defs><g id="Main_layer" data-name="Main layer"><path class="cls-1" d="M161.2,92.45c-.12,0-.37.11-.53.69A30.8,30.8,0,0,0,160,98c-.16.72-1.28,1.67-2.21,1.12a11.36,11.36,0,0,0-1.78-.86,11.88,11.88,0,0,0-1.89-.6c-1.06-.24-1.23-1.69-.85-2.33a30.09,30.09,0,0,0,2.83-4c.29-.54.16-.79.08-.88a18.48,18.48,0,0,1-1.89-1.22c-.12,0-.4,0-.77.43a30,30,0,0,0-2.44,4.21c-.42.6-1.82,1.06-2.47.19a11.56,11.56,0,0,0-1.33-1.47,10.94,10.94,0,0,0-1.5-1.28,1.65,1.65,0,0,1,.1-2.47A30.55,30.55,0,0,0,150,86.28c.47-.4.45-.67.41-.79a16.9,16.9,0,0,1-1.28-1.85c-.1-.08-.35-.2-.88.1a30.19,30.19,0,0,0-3.86,3,1.66,1.66,0,0,1-2.36-.77,11.54,11.54,0,0,0-.66-1.87,11.19,11.19,0,0,0-.91-1.76c-.57-.92.34-2.06,1.05-2.24a30.07,30.07,0,0,0,4.8-.8c.57-.17.66-.42.67-.55a18,18,0,0,1-.46-2.21c-.06-.11-.24-.32-.86-.24a31.07,31.07,0,0,0-4.7,1.25c-.72.13-2-.54-1.87-1.62a11.43,11.43,0,0,0,.1-2,11.75,11.75,0,0,0-.16-2c-.2-1.06,1.09-1.77,1.82-1.67a31,31,0,0,0,4.74,1.11c.61.05.79-.17.84-.27a17.75,17.75,0,0,1,.4-2.22c0-.13-.12-.38-.69-.55a31.72,31.72,0,0,0-4.82-.63c-.72-.16-1.67-1.28-1.12-2.22a11.32,11.32,0,0,0,.85-1.78,10.49,10.49,0,0,0,.6-1.88c.24-1.07,1.7-1.23,2.33-.85A31.86,31.86,0,0,0,148,63.81c.55.28.79.16.88.07A19.09,19.09,0,0,1,150.08,62c0-.11,0-.39-.43-.77a32.47,32.47,0,0,0-4.21-2.43,1.65,1.65,0,0,1-.19-2.47A14.24,14.24,0,0,0,148,53.48c.62-.89,2-.48,2.47.11A31.2,31.2,0,0,0,153,57.72c.39.47.67.44.78.4a21.86,21.86,0,0,1,1.86-1.28c.07-.09.2-.34-.11-.87a29.94,29.94,0,0,0-2.95-3.87c-.4-.61-.28-2.08.77-2.35a11.11,11.11,0,0,0,1.87-.66,11.89,11.89,0,0,0,1.75-.9c.92-.59,2.07.33,2.25,1a30.93,30.93,0,0,0,.79,4.8c.17.56.43.66.56.67a20,20,0,0,1,2.2-.47c.12,0,.33-.24.26-.85a30.77,30.77,0,0,0-1.26-4.7c-.14-.72.53-2,1.61-1.88a16.81,16.81,0,0,0,3.88-.17c1.07-.19,1.78,1.1,1.67,1.82a31.21,31.21,0,0,0-1.1,4.75c-.06.6.16.78.27.83.53.07,1,.18,1.56.28l1.8-10.21H130.2l-10.37,58.69h41.3l1.77-10C162.33,92.67,161.76,92.58,161.2,92.45Z"/><path class="cls-2" d="M200.05,44.1h12.32c6.63,0,9.62,3.64,8.61,9.5l-.66,3.83a8.44,8.44,0,0,1-5.5,6.93l-.06.24c1.79.66,4.06,2.69,3.17,7.66l-.54,3.11c-1.14,6.51-5.14,9.32-11.18,9.32H192.88Zm2.57,33.18h2.75c2.27,0,3.65-1.2,4.13-4l.42-1.91c.47-2.81-.78-3.83-2.69-3.83H204.3Zm2.81-16.14h2.81c1.86,0,3.41-1,3.83-3.59l.42-2.39c.41-2.33-.54-3.47-2.81-3.47h-2.57Z"/><path class="cls-2" d="M237,66.94l-3.11,17.75h-8.37l3.11-17.58-5.38-23h9.14L234.49,58l7.35-13.93h8.31Z"/><path class="cls-2" d="M240.88,64.6h15.3l-1.13,6.16H239.8Z"/><path class="cls-2" d="M282.73,70l-.54,2.93c-1.5,8.43-6.46,12.38-13,12.38-6.88,0-11.9-4-10.29-13.15l2.87-16.26c1.5-8.37,6.16-12.38,13-12.38,6.57,0,11.89,4,10.34,12.85l-.48,2.51-7.11.48.35-2.45c.72-3.64-.65-5.14-3-5.14s-4.19,1.5-4.85,5.14l-2.63,14.89c-.66,3.82.72,5.26,3.05,5.26s4.13-1.44,4.84-5.26l.42-2.33Z"/><path class="cls-2" d="M312.92,56.59l-2.87,16.32c-1.44,8.43-6.76,12.38-13.69,12.38s-12.5-4-10.95-13.15l2.87-16.26c1.5-8.37,6.82-12.38,13.75-12.38S314.53,47.51,312.92,56.59Zm-16.33.3L293.9,71.78c-.65,3.82.72,5.26,3.05,5.26s4.19-1.44,4.85-5.26l2.63-14.89c.65-3.64-.72-5.14-3-5.14S297.19,53.25,296.59,56.89Z"/><path class="cls-2" d="M334.62,44.1h7.89L327.44,84.69h-10L316.38,44.1h9.21l-.18,26.42Z"/><path class="cls-2" d="M353.74,44.1l-7.17,40.59H338.2l7.17-40.59Z"/><path class="cls-2" d="M351.47,84.69l7.17-40.59h10.94c6.88,0,11.9,3.64,10.29,12.61l-2.81,16c-1.5,8.42-6,12-12.86,12ZM364,76.8c2.34,0,4.19-1.43,4.85-5.26l2.57-14.41c.6-3.65-.72-5.14-3.05-5.14H365.7L361.27,76.8Z"/><polygon class="cls-1" points="190.86 44.1 180.49 102.78 186.37 102.78 196.75 44.1 190.86 44.1"/><path class="cls-3" d="M183.28,73.44a2.7,2.7,0,0,1-.21,1h0a2.88,2.88,0,0,1-.24.46h0a3,3,0,0,1-.35.43L172.86,85A2.75,2.75,0,0,1,169,85a2.71,2.71,0,0,1,0-3.85l5-5H152.72a2.72,2.72,0,0,1,0-5.44H174l-5-5a2.72,2.72,0,0,1,3.85-3.85l9.61,9.62a3.54,3.54,0,0,1,.35.42s0,0,0,0a2.42,2.42,0,0,1,.24.45v0A2.61,2.61,0,0,1,183.28,73.44Z"/><path class="cls-4" d="M192.58,101.63l-.21,1.16h-1.65l2.48-14h1.65L194,93.62a2.31,2.31,0,0,1,2-1.15c1.49,0,2.48,1,2.09,3.22l-.72,4.19c-.38,2-1.43,3.11-2.91,3.11A1.81,1.81,0,0,1,192.58,101.63Zm3.15-1.9.71-4c.2-1.16-.23-1.8-1.1-1.8s-1.52.64-1.73,1.82l-.68,3.92c-.21,1.16.22,1.77,1.09,1.77S195.55,100.87,195.73,99.73Z"/><path class="cls-4" d="M213.63,99.42l0,.25c-.37,2.17-1.51,3.32-3.36,3.32-2,0-3-1.26-2.65-3.28l.71-4c.3-1.72,1.27-3.22,3.38-3.22s2.91,1.48,2.6,3.26L213.88,98h-4.32l-.33,1.83c-.2,1.18.25,1.78,1.1,1.78s1.53-.62,1.73-1.76l.11-.55Zm-1.07-2.66.22-1.2c.19-1.09-.22-1.77-1.11-1.77s-1.51.64-1.71,1.79l-.21,1.18Z"/><path class="cls-4" d="M229.22,92.67h1.67l-6.11,13.83H223l2.27-4.56-1.19-9.27h1.69l.6,6.85Z"/><path class="cls-4" d="M239.06,99.67l.7-3.92c.4-2.21,1.74-3.28,3.47-3.28s3.08,1.07,2.66,3.34l-.7,3.94c-.37,2.19-1.71,3.24-3.44,3.24S238.67,101.94,239.06,99.67Zm4.48.06.7-4c.21-1.16-.22-1.8-1.11-1.8s-1.49.64-1.69,1.82l-.71,3.92c-.2,1.16.23,1.77,1.08,1.77S243.36,100.87,243.54,99.73Z"/><path class="cls-4" d="M258.46,92.67l-.18,1a2.61,2.61,0,0,1,2.21-1.21c1.46,0,2.27,1,1.92,3l-1.3,7.31h-1.66l1.24-7c.21-1.14,0-1.8-.93-1.8a2,2,0,0,0-1.85,1.82l-1.24,7H255l1.79-10.12Z"/><path class="cls-4" d="M272,99.79l.74-4.19c.37-2.06,1.42-3.13,2.93-3.13a1.83,1.83,0,0,1,1.9,1.32l.86-5h1.66l-2.46,14H276l.18-1a2.4,2.4,0,0,1-2,1.18C272.63,103,271.63,101.92,272,99.79Zm4.49-.08.71-3.92c.2-1.18-.21-1.82-1.08-1.82s-1.54.64-1.75,1.8l-.7,4c-.19,1.14.24,1.75,1.13,1.75S276.28,100.87,276.48,99.71Z"/><path class="cls-4" d="M306.27,99.17l-.06.27c-.41,2.44-1.55,3.55-3.41,3.55-2.21,0-2.87-1.61-2.58-3.28l.73-4c.3-1.76,1.25-3.28,3.34-3.28,1.71,0,3,1,2.58,3.3l-.1.58-1.47.16.12-.74c.21-1.14-.22-1.8-1.09-1.8s-1.51.64-1.71,1.82l-.71,3.92c-.2,1.16.23,1.77,1.08,1.77s1.55-.61,1.73-1.75l.15-.72Z"/><path class="cls-4" d="M316.16,99.67l.7-3.92c.39-2.21,1.73-3.28,3.47-3.28s3.07,1.07,2.66,3.34l-.7,3.94c-.37,2.19-1.72,3.24-3.45,3.24S315.77,101.94,316.16,99.67Zm4.48.06.7-4c.21-1.16-.23-1.8-1.12-1.8s-1.48.64-1.69,1.82l-.7,3.92c-.21,1.16.23,1.77,1.07,1.77S320.45,100.87,320.64,99.73Z"/><path class="cls-4" d="M333,92.67h1.74l.26,7.8,3.06-7.8h1.73l-4.31,10.12H333.7Z"/><path class="cls-4" d="M349.66,92.67h1.67l-1.77,10.12h-1.68Zm.72-4H352l-.31,1.9H350Z"/><path class="cls-4" d="M360.48,99.79l.74-4.19c.37-2.06,1.42-3.13,2.93-3.13a1.83,1.83,0,0,1,1.9,1.32l.87-5h1.65l-2.46,14h-1.65l.19-1a2.43,2.43,0,0,1-2,1.18C361.12,103,360.13,101.92,360.48,99.79Zm4.5-.08.7-3.92c.2-1.18-.21-1.82-1.08-1.82s-1.54.64-1.75,1.8l-.7,4c-.19,1.14.25,1.75,1.13,1.75S364.77,100.87,365,99.71Z"/></g></svg>