<svg version="1.1" viewBox="0.0 0.0 831.496062992126 170.07874015748033" fill="none" stroke="none" stroke-linecap="square" stroke-miterlimit="10" xmlns:xlink="http://www.w3.org/1999/xlink" xmlns="http://www.w3.org/2000/svg"><clipPath id="p.0"><path d="m0 0l831.49603 0l0 170.07874l-831.49603 0l0 -170.07874z" clip-rule="nonzero"/></clipPath><g clip-path="url(#p.0)"><path fill="#000000" fill-opacity="0.0" d="m0 0l831.49603 0l0 170.07874l-831.49603 0z" fill-rule="evenodd"/><path fill="#cfe2f3" d="m272.063 37.912804l498.39606 0l0 -12.6621475l60.37561 50.614174l-60.37561 50.614174l0 -12.6621475l-498.39606 0z" fill-rule="evenodd"/><path fill="#c9daf8" d="m272.06265 75.86483l0 0c0 -17.229546 13.967316 -31.19685 31.196838 -31.19685l0 0c8.273926 0 16.208984 3.2868004 22.05951 9.137344c5.8505554 5.850544 9.13736 13.785587 9.13736 22.059505l0 0c0 17.229546 -13.967316 31.196846 -31.196869 31.196846l0 0c-17.229523 0 -31.196838 -13.9673 -31.196838 -31.196846z" fill-rule="evenodd"/><path stroke="#4a86e8" stroke-width="4.0" stroke-linejoin="round" stroke-linecap="butt" d="m272.06265 75.86483l0 0c0 -17.229546 13.967316 -31.19685 31.196838 -31.19685l0 0c8.273926 0 16.208984 3.2868004 22.05951 9.137344c5.8505554 5.850544 9.13736 13.785587 9.13736 22.059505l0 0c0 17.229546 -13.967316 31.196846 -31.196869 31.196846l0 0c-17.229523 0 -31.196838 -13.9673 -31.196838 -31.196846z" fill-rule="evenodd"/><path fill="#000000" fill-opacity="0.0" d="m280.33038 59.014435l45.858246 0l0 33.70079l-45.858246 0z" fill-rule="evenodd"/><path fill="#4a86e8" d="m307.4255 86.764824l-5.640625 0l0 -21.765625l-6.734375 2.09375l0 -4.593746l11.78125 -4.21875l0.59375 0l0 28.484371z" fill-rule="nonzero"/><path fill="#c9daf8" d="m414.73782 75.86483l0 0c0 -17.229546 13.967316 -31.19685 31.196869 -31.19685l0 0c8.273895 0 16.208954 3.2868004 22.05951 9.137344c5.850525 5.850544 9.137329 13.785587 9.137329 22.059505l0 0c0 17.229546 -13.967316 31.196846 -31.196838 31.196846l0 0c-17.229553 0 -31.196869 -13.9673 -31.196869 -31.196846z" fill-rule="evenodd"/><path stroke="#4a86e8" stroke-width="4.0" stroke-linejoin="round" stroke-linecap="butt" d="m414.73782 75.86483l0 0c0 -17.229546 13.967316 -31.19685 31.196869 -31.19685l0 0c8.273895 0 16.208954 3.2868004 22.05951 9.137344c5.850525 5.850544 9.137329 13.785587 9.137329 22.059505l0 0c0 17.229546 -13.967316 31.196846 -31.196838 31.196846l0 0c-17.229553 0 -31.196869 -13.9673 -31.196869 -31.196846z" fill-rule="evenodd"/><path fill="#000000" fill-opacity="0.0" d="m377.147 114.22572l137.5748 0l0 46.866135l-137.5748 0z" fill-rule="evenodd"/><path fill="#4a86e8" d="m396.09293 132.55698l-1.5625 0l0 3.46875l-1.953125 0l0 -9.468758l3.515625 0q1.6875 0 2.59375 0.75q0.921875 0.7343826 0.921875 2.1093826q0 0.96875 -0.421875 1.625q-0.421875 0.640625 -1.28125 1.015625l2.046875 3.875l0 0.09375l-2.09375 0l-1.765625 -3.46875zm-1.5625 -1.578125l1.578125 0q0.734375 0 1.140625 -0.375q0.40625 -0.375 0.40625 -1.03125q0 -0.671875 -0.390625 -1.046875q-0.375 -0.390625 -1.171875 -0.390625l-1.5625 0l0 2.84375zm9.677673 5.171875q-1.546875 0 -2.53125 -0.9375q-0.96875 -0.953125 -0.96875 -2.53125l0 -0.1875q0 -1.0625 0.40625 -1.890625q0.40625 -0.84375 1.15625 -1.296875q0.765625 -0.453125 1.71875 -0.453125q1.453125 0 2.28125 0.921875q0.828125 0.90625 0.828125 2.578125l0 0.765625l-4.484375 0q0.09375 0.6875 0.546875 1.109375q0.46875 0.40625 1.171875 0.40625q1.078125 0 1.6875 -0.78125l0.921875 1.03125q-0.421875 0.59375 -1.140625 0.9375q-0.71875 0.328125 -1.59375 0.328125zm-0.21875 -5.78125q-0.5625 0 -0.90625 0.390625q-0.34375 0.375 -0.453125 1.078125l2.625 0l0 -0.15625q-0.015625 -0.625 -0.34375 -0.96875q-0.328125 -0.34375 -0.921875 -0.34375zm3.9073486 2.078125q0 -1.609375 0.765625 -2.59375q0.765625 -1.0 2.078125 -1.0q1.15625 0 1.8125 0.796875l0.078125 -0.671875l1.703125 0l0 6.8125q0 0.921875 -0.421875 1.609375q-0.421875 0.6875 -1.1875 1.03125q-0.765625 0.359375 -1.78125 0.359375q-0.765625 0 -1.515625 -0.3125q-0.734375 -0.296875 -1.109375 -0.78125l0.84375 -1.15625q0.703125 0.796875 1.703125 0.796875q0.75 0 1.15625 -0.40625q0.421875 -0.40625 0.421875 -1.140625l0 -0.375q-0.65625 0.734375 -1.71875 0.734375q-1.265625 0 -2.046875 -0.984375q-0.78125 -1.0 -0.78125 -2.640625l0 -0.078125zm1.875 0.140625q0 0.953125 0.375 1.5q0.390625 0.546875 1.0625 0.546875q0.859375 0 1.234375 -0.640625l0 -2.96875q-0.375 -0.640625 -1.21875 -0.640625q-0.671875 0 -1.0625 0.5625q-0.390625 0.546875 -0.390625 1.640625zm7.9826965 3.4375l-1.890625 0l0 -7.046875l1.890625 0l0 7.046875zm-2.0 -8.859383q0 -0.421875 0.28125 -0.6875q0.296875 -0.28125 0.78125 -0.28125q0.484375 0 0.765625 0.28125q0.28125 0.265625 0.28125 0.6875q0 0.421875 -0.296875 0.703125q-0.28125 0.26563263 -0.765625 0.26563263q-0.46875 0 -0.765625 -0.26563263q-0.28125 -0.28125 -0.28125 -0.703125zm7.361908 6.9062576q0 -0.34375 -0.34375 -0.53125q-0.328125 -0.203125 -1.09375 -0.359375q-2.515625 -0.53125 -2.515625 -2.140625q0 -0.9375 0.78125 -1.5625q0.78125 -0.625 2.03125 -0.625q1.34375 0 2.140625 0.640625q0.8125 0.625 0.8125 1.625l-1.875 0q0 -0.390625 -0.265625 -0.65625q-0.265625 -0.265625 -0.8125 -0.265625q-0.46875 0 -0.734375 0.21875q-0.265625 0.203125 -0.265625 0.546875q0 0.3125 0.296875 0.5q0.296875 0.1875 1.0 0.328125q0.703125 0.140625 1.1875 0.3125q1.484375 0.546875 1.484375 1.890625q0 0.96875 -0.828125 1.5625q-0.8125 0.59375 -2.125 0.59375q-0.890625 0 -1.578125 -0.3125q-0.6875 -0.3125 -1.078125 -0.859375q-0.390625 -0.546875 -0.390625 -1.1875l1.78125 0q0.03125 0.5 0.375 0.765625q0.34375 0.265625 0.921875 0.265625q0.546875 0 0.8125 -0.203125q0.28125 -0.203125 0.28125 -0.546875zm5.2903137 -6.8125076l0 1.7187576l1.203125 0l0 1.390625l-1.203125 0l0 3.515625q0 0.390625 0.15625 0.5625q0.15625 0.15625 0.578125 0.15625q0.3125 0 0.546875 -0.046875l0 1.4375q-0.546875 0.15625 -1.140625 0.15625q-1.984375 0 -2.015625 -2.0l0 -3.78125l-1.03125 0l0 -1.390625l1.03125 0l0 -1.7187576l1.875 0zm5.5034485 8.890633q-1.546875 0 -2.53125 -0.9375q-0.96875 -0.953125 -0.96875 -2.53125l0 -0.1875q0 -1.0625 0.40625 -1.890625q0.40625 -0.84375 1.15625 -1.296875q0.765625 -0.453125 1.71875 -0.453125q1.453125 0 2.28125 0.921875q0.828125 0.90625 0.828125 2.578125l0 0.765625l-4.484375 0q0.09375 0.6875 0.546875 1.109375q0.46875 0.40625 1.171875 0.40625q1.078125 0 1.6875 -0.78125l0.921875 1.03125q-0.421875 0.59375 -1.140625 0.9375q-0.71875 0.328125 -1.59375 0.328125zm-0.21875 -5.78125q-0.5625 0 -0.90625 0.390625q-0.34375 0.375 -0.453125 1.078125l2.625 0l0 -0.15625q-0.015625 -0.625 -0.34375 -0.96875q-0.328125 -0.34375 -0.921875 -0.34375zm8.126068 0.375q-0.375 -0.046875 -0.6718445 -0.046875q-1.0625 0 -1.390625 0.71875l0 4.609375l-1.890625 0l0 -7.046875l1.78125 0l0.046875 0.84375q0.578125 -0.96875 1.5780945 -0.96875q0.3125 0 0.578125 0.078125l-0.03125 1.8125zm10.352295 2.71875l0.921875 -4.484375l1.828125 0l-1.796875 7.046875l-1.578125 0l-1.34375 -4.4375l-1.328125 4.4375l-1.5625 0l-1.796875 -7.046875l1.8125 0l0.921875 4.484375l1.28125 -4.484375l1.359375 0l1.28125 4.484375zm3.372467 -1.015625q0 -1.0625 0.40625 -1.875q0.40625 -0.828125 1.15625 -1.265625q0.765625 -0.453125 1.765625 -0.453125q1.4375 0 2.328125 0.875q0.90625 0.875 1.015625 2.359375l0 0.484375q0 1.625 -0.90625 2.609375q-0.890625 0.96875 -2.421875 0.96875q-1.515625 0 -2.4375 -0.96875q-0.90625 -0.984375 -0.90625 -2.65625l0 -0.078125zm1.890625 0.125q0 1.0 0.375 1.53125q0.375 0.53125 1.078125 0.53125q0.6875 0 1.0625 -0.515625q0.390625 -0.53125 0.390625 -1.671875q0 -0.984375 -0.390625 -1.53125q-0.375 -0.546875 -1.078125 -0.546875q-0.6875 0 -1.0625 0.546875q-0.375 0.53125 -0.375 1.65625zm9.895508 -1.828125q-0.375 -0.046875 -0.671875 -0.046875q-1.0625 0 -1.390625 0.71875l0 4.609375l-1.890625 0l0 -7.046875l1.78125 0l0.046875 0.84375q0.578125 -0.96875 1.578125 -0.96875q0.3125 0 0.578125 0.078125l-0.03125 1.8125zm3.4707642 2.453125l-0.671875 0.6875l0 2.140625l-1.890625 0l0 -10.000008l1.890625 0l0 5.5468826l0.359375 -0.46875l1.796875 -2.125l2.265625 0l-2.546875 2.9375l2.765625 4.109375l-2.15625 0l-1.8125 -2.828125zm9.275848 -5.7031326q-0.5625 -0.078125 -1.03125 -0.078125q-1.28125 0 -1.28125 1.0937576l0 0.46875l1.390625 0l0 1.390625l-1.390625 0l0 5.65625l-1.890625 0l0 -5.65625l-1.046875 0l0 -1.390625l1.046875 0l0 -0.546875q0.015625 -1.2187576 0.765625 -1.8750076q0.765625 -0.65625 2.140625 -0.65625q0.984375 0 3.1875 0.203125l0 9.921883l-1.890625 0l0 -8.531258zm3.151764 4.9531326q0 -1.0625 0.40625 -1.875q0.40625 -0.828125 1.15625 -1.265625q0.765625 -0.453125 1.765625 -0.453125q1.4375 0 2.328125 0.875q0.90625 0.875 1.015625 2.359375l0 0.484375q0 1.625 -0.90625 2.609375q-0.890625 0.96875 -2.421875 0.96875q-1.515625 0 -2.4375 -0.96875q-0.90625 -0.984375 -0.90625 -2.65625l0 -0.078125zm1.890625 0.125q0 1.0 0.375 1.53125q0.375 0.53125 1.078125 0.53125q0.6875 0 1.0625 -0.515625q0.390625 -0.53125 0.390625 -1.671875q0 -0.984375 -0.390625 -1.53125q-0.375 -0.546875 -1.078125 -0.546875q-0.6875 0 -1.0625 0.546875q-0.375 0.53125 -0.375 1.65625zm12.067383 0.890625l0.921875 -4.484375l1.828125 0l-1.796875 7.046875l-1.578125 0l-1.34375 -4.4375l-1.328125 4.4375l-1.5625 0l-1.796875 -7.046875l1.8125 0l0.921875 4.484375l1.28125 -4.484375l1.359375 0l1.28125 4.484375z" fill-rule="nonzero"/><path fill="#000000" fill-opacity="0.0" d="m423.00555 59.014435l45.858276 0l0 33.70079l-45.858276 0z" fill-rule="evenodd"/><path fill="#4a86e8" d="m455.88196 86.764824l-19.484375 0l0 -3.875l9.203125 -9.796875q1.890625 -2.078125 2.796875 -3.609375q0.90625 -1.546875 0.90625 -2.9375q0 -1.890625 -0.953125 -2.9687462q-0.953125 -1.09375 -2.734375 -1.09375q-1.921875 0 -3.03125 1.328125q-1.09375 1.3124962 -1.09375 3.4531212l-5.65625 0q0 -2.59375 1.234375 -4.734371q1.234375 -2.15625 3.5 -3.375q2.265625 -1.21875 5.140625 -1.21875q4.390625 0 6.828125 2.109375q2.4375 2.109375 2.4375 5.953121q0 2.109375 -1.09375 4.296875q-1.09375 2.1875 -3.75 5.09375l-6.46875 6.828125l12.21875 0l0 4.546875z" fill-rule="nonzero"/><path fill="#c9daf8" d="m556.98486 75.86483l0 0c0 -17.229546 13.967285 -31.19685 31.196838 -31.19685l0 0c8.273926 0 16.208984 3.2868004 22.05951 9.137344c5.850586 5.850544 9.13739 13.785587 9.13739 22.059505l0 0c0 17.229546 -13.967346 31.196846 -31.1969 31.196846l0 0c-17.229553 0 -31.196838 -13.9673 -31.196838 -31.196846z" fill-rule="evenodd"/><path stroke="#4a86e8" stroke-width="4.0" stroke-linejoin="round" stroke-linecap="butt" d="m556.98486 75.86483l0 0c0 -17.229546 13.967285 -31.19685 31.196838 -31.19685l0 0c8.273926 0 16.208984 3.2868004 22.05951 9.137344c5.850586 5.850544 9.13739 13.785587 9.13739 22.059505l0 0c0 17.229546 -13.967346 31.196846 -31.1969 31.196846l0 0c-17.229553 0 -31.196838 -13.9673 -31.196838 -31.196846z" fill-rule="evenodd"/><path fill="#000000" fill-opacity="0.0" d="m516.7953 114.22572l142.77167 0l0 46.866135l-142.77167 0z" fill-rule="evenodd"/><path fill="#4a86e8" d="m552.38245 134.0726l-3.4375 0l-0.640625 1.953125l-2.078125 0l3.53125 -9.468758l1.796875 0l3.546875 9.468758l-2.0625 0l-0.65625 -1.953125zm-2.90625 -1.578125l2.375 0l-1.1875 -3.546875l-1.1875 3.546875zm6.0928345 -0.046875q0 -1.640625 0.734375 -2.609375q0.75 -0.984375 2.03125 -0.984375q1.03125 0 1.703125 0.765625l0 -3.5937576l1.890625 0l0 10.000008l-1.703125 0l-0.09375 -0.75q-0.703125 0.875 -1.8125 0.875q-1.234375 0 -2.0 -0.96875q-0.75 -0.984375 -0.75 -2.734375zm1.890625 0.140625q0 0.984375 0.34375 1.515625q0.34375 0.53125 1.0 0.53125q0.875 0 1.234375 -0.734375l0 -2.78125q-0.359375 -0.734375 -1.21875 -0.734375q-1.359375 0 -1.359375 2.203125zm5.619446 -0.140625q0 -1.640625 0.734375 -2.609375q0.75 -0.984375 2.03125 -0.984375q1.03125 0 1.703125 0.765625l0 -3.5937576l1.890625 0l0 10.000008l-1.703125 0l-0.09375 -0.75q-0.703125 0.875 -1.8125 0.875q-1.234375 0 -2.0 -0.96875q-0.75 -0.984375 -0.75 -2.734375zm1.890625 0.140625q0 0.984375 0.34375 1.515625q0.34375 0.53125 1.0 0.53125q0.875 0 1.234375 -0.734375l0 -2.78125q-0.359375 -0.734375 -1.21875 -0.734375q-1.359375 0 -1.359375 2.203125zm11.000977 -3.609375l0.0625 0.796875q0.75 -0.921875 2.015625 -0.921875q1.359375 0 1.875 1.078125q0.734375 -1.078125 2.109375 -1.078125q1.15625 0 1.703125 0.671875q0.5625 0.65625 0.5625 2.0l0 4.5l-1.890625 0l0 -4.484375q0 -0.609375 -0.234375 -0.875q-0.234375 -0.28125 -0.8125 -0.28125q-0.859375 0 -1.171875 0.8125l0 4.828125l-1.875 0l0 -4.484375q0 -0.609375 -0.25 -0.875q-0.234375 -0.28125 -0.8125 -0.28125q-0.796875 0 -1.15625 0.65625l0 4.984375l-1.890625 0l0 -7.046875l1.765625 0zm13.022888 7.171875q-1.546875 0 -2.53125 -0.9375q-0.96875 -0.953125 -0.96875 -2.53125l0 -0.1875q0 -1.0625 0.40625 -1.890625q0.40625 -0.84375 1.15625 -1.296875q0.765625 -0.453125 1.71875 -0.453125q1.453125 0 2.28125 0.921875q0.828125 0.90625 0.828125 2.578125l0 0.765625l-4.484375 0q0.09375 0.6875 0.546875 1.109375q0.46875 0.40625 1.171875 0.40625q1.078125 0 1.6875 -0.78125l0.921875 1.03125q-0.421875 0.59375 -1.140625 0.9375q-0.71875 0.328125 -1.59375 0.328125zm-0.21875 -5.78125q-0.5625 0 -0.90625 0.390625q-0.34375 0.375 -0.453125 1.078125l2.625 0l0 -0.15625q-0.015625 -0.625 -0.34375 -0.96875q-0.328125 -0.34375 -0.921875 -0.34375zm6.4229736 -3.1093826l0 1.7187576l1.203125 0l0 1.390625l-1.203125 0l0 3.515625q0 0.390625 0.15625 0.5625q0.15625 0.15625 0.578125 0.15625q0.3125 0 0.546875 -0.046875l0 1.4375q-0.546875 0.15625 -1.140625 0.15625q-1.984375 0 -2.015625 -2.0l0 -3.78125l-1.03125 0l0 -1.390625l1.03125 0l0 -1.7187576l1.875 0zm6.331543 8.765633q-0.125 -0.25 -0.1875 -0.625q-0.671875 0.75 -1.765625 0.75q-1.046875 0 -1.734375 -0.59375q-0.671875 -0.59375 -0.671875 -1.515625q0 -1.109375 0.828125 -1.703125q0.84375 -0.609375 2.40625 -0.609375l0.859375 0l0 -0.40625q0 -0.484375 -0.25 -0.78125q-0.25 -0.296875 -0.78125 -0.296875q-0.484375 0 -0.75 0.234375q-0.265625 0.21875 -0.265625 0.625l-1.890625 0q0 -0.609375 0.375 -1.125q0.390625 -0.53125 1.078125 -0.828125q0.6875 -0.296875 1.546875 -0.296875q1.296875 0 2.0625 0.65625q0.765625 0.65625 0.765625 1.84375l0 3.046875q0.015625 1.0 0.28125 1.515625l0 0.109375l-1.90625 0zm-1.546875 -1.3125q0.40625 0 0.75 -0.171875q0.359375 -0.1875 0.53125 -0.5l0 -1.21875l-0.703125 0q-1.40625 0 -1.5 0.984375l0 0.109375q0 0.34375 0.234375 0.578125q0.25 0.21875 0.6875 0.21875zm4.317505 -2.265625q0 -1.640625 0.734375 -2.609375q0.75 -0.984375 2.03125 -0.984375q1.03125 0 1.703125 0.765625l0 -3.5937576l1.890625 0l0 10.000008l-1.703125 0l-0.09375 -0.75q-0.703125 0.875 -1.8125 0.875q-1.234375 0 -2.0 -0.96875q-0.75 -0.984375 -0.75 -2.734375zm1.890625 0.140625q0 0.984375 0.34375 1.515625q0.34375 0.53125 1.0 0.53125q0.875 0 1.234375 -0.734375l0 -2.78125q-0.359375 -0.734375 -1.21875 -0.734375q-1.359375 0 -1.359375 2.203125zm9.994507 3.4375q-0.125 -0.25 -0.1875 -0.625q-0.671875 0.75 -1.765625 0.75q-1.046875 0 -1.734375 -0.59375q-0.671875 -0.59375 -0.671875 -1.515625q0 -1.109375 0.828125 -1.703125q0.84375 -0.609375 2.40625 -0.609375l0.859375 0l0 -0.40625q0 -0.484375 -0.25 -0.78125q-0.25 -0.296875 -0.78125 -0.296875q-0.484375 0 -0.75 0.234375q-0.265625 0.21875 -0.265625 0.625l-1.890625 0q0 -0.609375 0.375 -1.125q0.390625 -0.53125 1.078125 -0.828125q0.6875 -0.296875 1.546875 -0.296875q1.296875 0 2.0625 0.65625q0.765625 0.65625 0.765625 1.84375l0 3.046875q0.015625 1.0 0.28125 1.515625l0 0.109375l-1.90625 0zm-1.546875 -1.3125q0.40625 0 0.75 -0.171875q0.359375 -0.1875 0.53125 -0.5l0 -1.21875l-0.703125 0q-1.40625 0 -1.5 0.984375l0 0.109375q0 0.34375 0.234375 0.578125q0.25 0.21875 0.6875 0.21875zm6.86438 -7.4531326l0 1.7187576l1.203125 0l0 1.390625l-1.203125 0l0 3.515625q0 0.390625 0.15625 0.5625q0.15625 0.15625 0.578125 0.15625q0.3125 0 0.546875 -0.046875l0 1.4375q-0.546875 0.15625 -1.140625 0.15625q-1.984375 0 -2.015625 -2.0l0 -3.78125l-1.03125 0l0 -1.390625l1.03125 0l0 -1.7187576l1.875 0zm6.331543 8.765633q-0.125 -0.25 -0.1875 -0.625q-0.671875 0.75 -1.765625 0.75q-1.046875 0 -1.734375 -0.59375q-0.671875 -0.59375 -0.671875 -1.515625q0 -1.109375 0.828125 -1.703125q0.84375 -0.609375 2.40625 -0.609375l0.859375 0l0 -0.40625q0 -0.484375 -0.25 -0.78125q-0.25 -0.296875 -0.78125 -0.296875q-0.484375 0 -0.75 0.234375q-0.265625 0.21875 -0.265625 0.625l-1.890625 0q0 -0.609375 0.375 -1.125q0.390625 -0.53125 1.078125 -0.828125q0.6875 -0.296875 1.546875 -0.296875q1.296875 0 2.0625 0.65625q0.765625 0.65625 0.765625 1.84375l0 3.046875q0.015625 1.0 0.28125 1.515625l0 0.109375l-1.90625 0zm-1.546875 -1.3125q0.40625 0 0.75 -0.171875q0.359375 -0.1875 0.53125 -0.5l0 -1.21875l-0.703125 0q-1.40625 0 -1.5 0.984375l0 0.109375q0 0.34375 0.234375 0.578125q0.25 0.21875 0.6875 0.21875z" fill-rule="nonzero"/><path fill="#000000" fill-opacity="0.0" d="m565.25256 59.014435l45.858276 0l0 33.70079l-45.858276 0z" fill-rule="evenodd"/><path fill="#4a86e8" d="m584.37897 70.046074l3.015625 0q2.140625 0 3.171875 -1.078125q1.046875 -1.078125 1.046875 -2.84375q0 -1.71875 -1.03125 -2.6718712q-1.015625 -0.96875 -2.8125 -0.96875q-1.625 0 -2.71875 0.890625q-1.09375 0.8906212 -1.09375 2.3124962l-5.640625 0q0 -2.2187462 1.1875 -3.9843712q1.203125 -1.78125 3.359375 -2.765625q2.171875 -1.0 4.765625 -1.0q4.515625 0 7.0625 2.15625q2.5625 2.15625 2.5625 5.953121q0 1.953125 -1.1875 3.59375q-1.1875 1.640625 -3.125 2.515625q2.40625 0.859375 3.578125 2.578125q1.1875 1.71875 1.1875 4.0625q0 3.78125 -2.765625 6.078125q-2.765625 2.28125 -7.3125 2.28125q-4.265625 0 -6.96875 -2.25q-2.703125 -2.25 -2.703125 -5.9375l5.640625 0q0 1.609375 1.203125 2.625q1.203125 1.015625 2.96875 1.015625q2.0 0 3.140625 -1.0625q1.15625 -1.078125 1.15625 -2.828125q0 -4.265625 -4.6875 -4.265625l-3.0 0l0 -4.40625z" fill-rule="nonzero"/><path fill="#c9daf8" d="m701.4901 75.86483l0 0c0 -17.229546 13.967285 -31.19685 31.196838 -31.19685l0 0c8.273926 0 16.208984 3.2868004 22.05951 9.137344c5.850586 5.850544 9.13739 13.785587 9.13739 22.059505l0 0c0 17.229546 -13.967346 31.196846 -31.1969 31.196846l0 0c-17.229553 0 -31.196838 -13.9673 -31.196838 -31.196846z" fill-rule="evenodd"/><path stroke="#4a86e8" stroke-width="4.0" stroke-linejoin="round" stroke-linecap="butt" d="m701.4901 75.86483l0 0c0 -17.229546 13.967285 -31.19685 31.196838 -31.19685l0 0c8.273926 0 16.208984 3.2868004 22.05951 9.137344c5.850586 5.850544 9.13739 13.785587 9.13739 22.059505l0 0c0 17.229546 -13.967346 31.196846 -31.1969 31.196846l0 0c-17.229553 0 -31.196838 -13.9673 -31.196838 -31.196846z" fill-rule="evenodd"/><path fill="#000000" fill-opacity="0.0" d="m661.30054 114.22572l142.77167 0l0 46.866135l-142.77167 0z" fill-rule="evenodd"/><path fill="#4a86e8" d="m679.6439 132.15073l-3.75 0l0 3.875l-1.953125 0l0 -9.468758l6.171875 0l0 1.5781326l-4.21875 0l0 2.4375l3.75 0l0 1.578125zm3.4580688 3.875l-1.890625 0l0 -7.046875l1.890625 0l0 7.046875zm-2.0 -8.859383q0 -0.421875 0.28125 -0.6875q0.296875 -0.28125 0.78125 -0.28125q0.484375 0 0.765625 0.28125q0.28125 0.265625 0.28125 0.6875q0 0.421875 -0.296875 0.703125q-0.28125 0.26563263 -0.765625 0.26563263q-0.46875 0 -0.765625 -0.26563263q-0.28125 -0.28125 -0.28125 -0.703125zm5.2838135 1.8125076l0.0625 0.8125q0.75 -0.9375 2.015625 -0.9375q1.125 0 1.671875 0.65625q0.546875 0.65625 0.5625 1.96875l0 4.546875l-1.890625 0l0 -4.5q0 -0.609375 -0.265625 -0.875q-0.25 -0.265625 -0.859375 -0.265625q-0.78125 0 -1.1875 0.671875l0 4.96875l-1.875 0l0 -7.046875l1.765625 0zm9.808289 7.046875q-0.125 -0.25 -0.1875 -0.625q-0.671875 0.75 -1.765625 0.75q-1.046875 0 -1.734375 -0.59375q-0.671875 -0.59375 -0.671875 -1.515625q0 -1.109375 0.828125 -1.703125q0.84375 -0.609375 2.40625 -0.609375l0.859375 0l0 -0.40625q0 -0.484375 -0.25 -0.78125q-0.25 -0.296875 -0.78125 -0.296875q-0.484375 0 -0.75 0.234375q-0.265625 0.21875 -0.265625 0.625l-1.890625 0q0 -0.609375 0.375 -1.125q0.390625 -0.53125 1.078125 -0.828125q0.6875 -0.296875 1.546875 -0.296875q1.296875 0 2.0625 0.65625q0.765625 0.65625 0.765625 1.84375l0 3.046875q0.015625 1.0 0.28125 1.515625l0 0.109375l-1.90625 0zm-1.546875 -1.3125q0.40625 0 0.75 -0.171875q0.359375 -0.1875 0.53125 -0.5l0 -1.21875l-0.703125 0q-1.40625 0 -1.5 0.984375l0 0.109375q0 0.34375 0.234375 0.578125q0.25 0.21875 0.6875 0.21875zm6.598755 1.3125l-1.890625 0l0 -10.000008l1.890625 0l0 10.000008zm3.5338135 0l-1.890625 0l0 -7.046875l1.890625 0l0 7.046875zm-2.0 -8.859383q0 -0.421875 0.28125 -0.6875q0.296875 -0.28125 0.78125 -0.28125q0.484375 0 0.765625 0.28125q0.28125 0.265625 0.28125 0.6875q0 0.421875 -0.296875 0.703125q-0.28125 0.26563263 -0.765625 0.26563263q-0.46875 0 -0.765625 -0.26563263q-0.28125 -0.28125 -0.28125 -0.703125zm7.3618774 6.9062576q0 -0.34375 -0.34375 -0.53125q-0.328125 -0.203125 -1.09375 -0.359375q-2.515625 -0.53125 -2.515625 -2.140625q0 -0.9375 0.78125 -1.5625q0.78125 -0.625 2.03125 -0.625q1.34375 0 2.140625 0.640625q0.8125 0.625 0.8125 1.625l-1.875 0q0 -0.390625 -0.265625 -0.65625q-0.265625 -0.265625 -0.8125 -0.265625q-0.46875 0 -0.734375 0.21875q-0.265625 0.203125 -0.265625 0.546875q0 0.3125 0.296875 0.5q0.296875 0.1875 1.0 0.328125q0.703125 0.140625 1.1875 0.3125q1.484375 0.546875 1.484375 1.890625q0 0.96875 -0.828125 1.5625q-0.8125 0.59375 -2.125 0.59375q-0.890625 0 -1.578125 -0.3125q-0.6875 -0.3125 -1.078125 -0.859375q-0.390625 -0.546875 -0.390625 -1.1875l1.78125 0q0.03125 0.5 0.375 0.765625q0.34375 0.265625 0.921875 0.265625q0.546875 0 0.8125 -0.203125q0.28125 -0.203125 0.28125 -0.546875zm6.290283 2.078125q-1.546875 0 -2.53125 -0.9375q-0.96875 -0.953125 -0.96875 -2.53125l0 -0.1875q0 -1.0625 0.40625 -1.890625q0.40625 -0.84375 1.15625 -1.296875q0.765625 -0.453125 1.71875 -0.453125q1.453125 0 2.28125 0.921875q0.828125 0.90625 0.828125 2.578125l0 0.765625l-4.484375 0q0.09375 0.6875 0.546875 1.109375q0.46875 0.40625 1.171875 0.40625q1.078125 0 1.6875 -0.78125l0.921875 1.03125q-0.421875 0.59375 -1.140625 0.9375q-0.71875 0.328125 -1.59375 0.328125zm-0.21875 -5.78125q-0.5625 0 -0.90625 0.390625q-0.34375 0.375 -0.453125 1.078125l2.625 0l0 -0.15625q-0.015625 -0.625 -0.34375 -0.96875q-0.328125 -0.34375 -0.921875 -0.34375zm11.445129 0.375q-0.375 -0.046875 -0.671875 -0.046875q-1.0625 0 -1.390625 0.71875l0 4.609375l-1.890625 0l0 -7.046875l1.78125 0l0.046875 0.84375q0.578125 -0.96875 1.578125 -0.96875q0.3125 0 0.578125 0.078125l-0.03125 1.8125zm4.034546 5.40625q-1.546875 0 -2.53125 -0.9375q-0.96875 -0.953125 -0.96875 -2.53125l0 -0.1875q0 -1.0625 0.40625 -1.890625q0.40625 -0.84375 1.15625 -1.296875q0.765625 -0.453125 1.71875 -0.453125q1.453125 0 2.28125 0.921875q0.828125 0.90625 0.828125 2.578125l0 0.765625l-4.484375 0q0.09375 0.6875 0.546875 1.109375q0.46875 0.40625 1.171875 0.40625q1.078125 0 1.6875 -0.78125l0.921875 1.03125q-0.421875 0.59375 -1.140625 0.9375q-0.71875 0.328125 -1.59375 0.328125zm-0.21875 -5.78125q-0.5625 0 -0.90625 0.390625q-0.34375 0.375 -0.453125 1.078125l2.625 0l0 -0.15625q-0.015625 -0.625 -0.34375 -0.96875q-0.328125 -0.34375 -0.921875 -0.34375zm3.9073486 2.078125q0 -1.609375 0.765625 -2.59375q0.765625 -1.0 2.078125 -1.0q1.15625 0 1.8125 0.796875l0.078125 -0.671875l1.703125 0l0 6.8125q0 0.921875 -0.421875 1.609375q-0.421875 0.6875 -1.1875 1.03125q-0.765625 0.359375 -1.78125 0.359375q-0.765625 0 -1.515625 -0.3125q-0.734375 -0.296875 -1.109375 -0.78125l0.84375 -1.15625q0.703125 0.796875 1.703125 0.796875q0.75 0 1.15625 -0.40625q0.421875 -0.40625 0.421875 -1.140625l0 -0.375q-0.65625 0.734375 -1.71875 0.734375q-1.265625 0 -2.046875 -0.984375q-0.78125 -1.0 -0.78125 -2.640625l0 -0.078125zm1.875 0.140625q0 0.953125 0.375 1.5q0.390625 0.546875 1.0625 0.546875q0.859375 0 1.234375 -0.640625l0 -2.96875q-0.375 -0.640625 -1.21875 -0.640625q-0.671875 0 -1.0625 0.5625q-0.390625 0.546875 -0.390625 1.640625zm7.982727 3.4375l-1.890625 0l0 -7.046875l1.890625 0l0 7.046875zm-2.0 -8.859383q0 -0.421875 0.28125 -0.6875q0.296875 -0.28125 0.78125 -0.28125q0.484375 0 0.765625 0.28125q0.28125 0.265625 0.28125 0.6875q0 0.421875 -0.296875 0.703125q-0.28125 0.26563263 -0.765625 0.26563263q-0.46875 0 -0.765625 -0.26563263q-0.28125 -0.28125 -0.28125 -0.703125zm7.3619385 6.9062576q0 -0.34375 -0.34375 -0.53125q-0.328125 -0.203125 -1.09375 -0.359375q-2.515625 -0.53125 -2.515625 -2.140625q0 -0.9375 0.78125 -1.5625q0.78125 -0.625 2.03125 -0.625q1.34375 0 2.140625 0.640625q0.8125 0.625 0.8125 1.625l-1.875 0q0 -0.390625 -0.265625 -0.65625q-0.265625 -0.265625 -0.8125 -0.265625q-0.46875 0 -0.734375 0.21875q-0.265625 0.203125 -0.265625 0.546875q0 0.3125 0.296875 0.5q0.296875 0.1875 1.0 0.328125q0.703125 0.140625 1.1875 0.3125q1.484375 0.546875 1.484375 1.890625q0 0.96875 -0.828125 1.5625q-0.8125 0.59375 -2.125 0.59375q-0.890625 0 -1.578125 -0.3125q-0.6875 -0.3125 -1.078125 -0.859375q-0.390625 -0.546875 -0.390625 -1.1875l1.78125 0q0.03125 0.5 0.375 0.765625q0.34375 0.265625 0.921875 0.265625q0.546875 0 0.8125 -0.203125q0.28125 -0.203125 0.28125 -0.546875zm5.290283 -6.8125076l0 1.7187576l1.203125 0l0 1.390625l-1.203125 0l0 3.515625q0 0.390625 0.15625 0.5625q0.15625 0.15625 0.578125 0.15625q0.3125 0 0.546875 -0.046875l0 1.4375q-0.546875 0.15625 -1.140625 0.15625q-1.984375 0 -2.015625 -2.0l0 -3.78125l-1.03125 0l0 -1.390625l1.03125 0l0 -1.7187576l1.875 0zm6.206543 3.4843826q-0.375 -0.046875 -0.671875 -0.046875q-1.0625 0 -1.390625 0.71875l0 4.609375l-1.890625 0l0 -7.046875l1.78125 0l0.046875 0.84375q0.578125 -0.96875 1.578125 -0.96875q0.3125 0 0.578125 0.078125l-0.03125 1.8125zm4.7910767 5.28125q-0.125 -0.25 -0.1875 -0.625q-0.671875 0.75 -1.765625 0.75q-1.046875 0 -1.734375 -0.59375q-0.671875 -0.59375 -0.671875 -1.515625q0 -1.109375 0.828125 -1.703125q0.84375 -0.609375 2.40625 -0.609375l0.859375 0l0 -0.40625q0 -0.484375 -0.25 -0.78125q-0.25 -0.296875 -0.78125 -0.296875q-0.484375 0 -0.75 0.234375q-0.265625 0.21875 -0.265625 0.625l-1.890625 0q0 -0.609375 0.375 -1.125q0.390625 -0.53125 1.078125 -0.828125q0.6875 -0.296875 1.546875 -0.296875q1.296875 0 2.0625 0.65625q0.765625 0.65625 0.765625 1.84375l0 3.046875q0.015625 1.0 0.28125 1.515625l0 0.109375l-1.90625 0zm-1.546875 -1.3125q0.40625 0 0.75 -0.171875q0.359375 -0.1875 0.53125 -0.5l0 -1.21875l-0.703125 0q-1.40625 0 -1.5 0.984375l0 0.109375q0 0.34375 0.234375 0.578125q0.25 0.21875 0.6875 0.21875zm6.864441 -7.4531326l0 1.7187576l1.203125 0l0 1.390625l-1.203125 0l0 3.515625q0 0.390625 0.15625 0.5625q0.15625 0.15625 0.578125 0.15625q0.3125 0 0.546875 -0.046875l0 1.4375q-0.546875 0.15625 -1.140625 0.15625q-1.984375 0 -2.015625 -2.0l0 -3.78125l-1.03125 0l0 -1.390625l1.03125 0l0 -1.7187576l1.875 0zm4.237793 8.765633l-1.890625 0l0 -7.046875l1.890625 0l0 7.046875zm-2.0 -8.859383q0 -0.421875 0.28125 -0.6875q0.296875 -0.28125 0.78125 -0.28125q0.484375 0 0.765625 0.28125q0.28125 0.265625 0.28125 0.6875q0 0.421875 -0.296875 0.703125q-0.28125 0.26563263 -0.765625 0.26563263q-0.46875 0 -0.765625 -0.26563263q-0.28125 -0.28125 -0.28125 -0.703125zm3.2525635 5.2812576q0 -1.0625 0.40625 -1.875q0.40625 -0.828125 1.15625 -1.265625q0.765625 -0.453125 1.765625 -0.453125q1.4375 0 2.328125 0.875q0.90625 0.875 1.015625 2.359375l0 0.484375q0 1.625 -0.90625 2.609375q-0.890625 0.96875 -2.421875 0.96875q-1.515625 0 -2.4375 -0.96875q-0.90625 -0.984375 -0.90625 -2.65625l0 -0.078125zm1.890625 0.125q0 1.0 0.375 1.53125q0.375 0.53125 1.078125 0.53125q0.6875 0 1.0625 -0.515625q0.390625 -0.53125 0.390625 -1.671875q0 -0.984375 -0.390625 -1.53125q-0.375 -0.546875 -1.078125 -0.546875q-0.6875 0 -1.0625 0.546875q-0.375 0.53125 -0.375 1.65625zm7.676697 -3.59375l0.0625 0.8125q0.75 -0.9375 2.015625 -0.9375q1.125 0 1.671875 0.65625q0.546875 0.65625 0.5625 1.96875l0 4.546875l-1.890625 0l0 -4.5q0 -0.609375 -0.265625 -0.875q-0.25 -0.265625 -0.859375 -0.265625q-0.78125 0 -1.1875 0.671875l0 4.96875l-1.875 0l0 -7.046875l1.765625 0z" fill-rule="nonzero"/><path fill="#4a86e8" d="m705.201 154.02573q-0.125 -0.25 -0.1875 -0.625q-0.671875 0.75 -1.765625 0.75q-1.046875 0 -1.734375 -0.59375q-0.671875 -0.59375 -0.671875 -1.515625q0 -1.109375 0.828125 -1.703125q0.84375 -0.609375 2.40625 -0.609375l0.859375 0l0 -0.40625q0 -0.484375 -0.25 -0.78125q-0.25 -0.296875 -0.78125 -0.296875q-0.484375 0 -0.75 0.234375q-0.265625 0.21875 -0.265625 0.625l-1.890625 0q0 -0.609375 0.375 -1.125q0.390625 -0.53125 1.078125 -0.828125q0.6875 -0.296875 1.546875 -0.296875q1.296875 0 2.0625 0.65625q0.765625 0.65625 0.765625 1.84375l0 3.046875q0.015625 1.0 0.28125 1.515625l0 0.109375l-1.90625 0zm-1.546875 -1.3125q0.40625 0 0.75 -0.171875q0.359375 -0.1875 0.53125 -0.5l0 -1.21875l-0.703125 0q-1.40625 0 -1.5 0.984375l0 0.109375q0 0.34375 0.234375 0.578125q0.25 0.21875 0.6875 0.21875zm6.348755 -5.734375l0.0625 0.8125q0.75 -0.9375 2.015625 -0.9375q1.125 0 1.671875 0.65625q0.546875 0.65625 0.5625 1.96875l0 4.546875l-1.890625 0l0 -4.5q0 -0.609375 -0.265625 -0.875q-0.25 -0.265625 -0.859375 -0.265625q-0.78125 0 -1.1875 0.671875l0 4.96875l-1.875 0l0 -7.046875l1.765625 0zm5.4332886 3.46875q0 -1.640625 0.734375 -2.609375q0.75 -0.984375 2.03125 -0.984375q1.03125 0 1.703125 0.765625l0 -3.59375l1.890625 0l0 10.0l-1.703125 0l-0.09375 -0.75q-0.703125 0.875 -1.8125 0.875q-1.234375 0 -2.0 -0.96875q-0.75 -0.984375 -0.75 -2.734375zm1.890625 0.140625q0 0.984375 0.34375 1.515625q0.34375 0.53125 1.0 0.53125q0.875 0 1.234375 -0.734375l0 -2.78125q-0.359375 -0.734375 -1.21875 -0.734375q-1.359375 0 -1.359375 2.203125zm13.188477 -1.84375q-0.375 -0.046875 -0.671875 -0.046875q-1.0625 0 -1.390625 0.71875l0 4.609375l-1.890625 0l0 -7.046875l1.78125 0l0.046875 0.84375q0.578125 -0.96875 1.578125 -0.96875q0.3125 0 0.578125 0.078125l-0.03125 1.8125zm4.034546 5.40625q-1.546875 0 -2.53125 -0.9375q-0.96875 -0.953125 -0.96875 -2.53125l0 -0.1875q0 -1.0625 0.40625 -1.890625q0.40625 -0.84375 1.15625 -1.296875q0.765625 -0.453125 1.71875 -0.453125q1.453125 0 2.28125 0.921875q0.828125 0.90625 0.828125 2.578125l0 0.765625l-4.484375 0q0.09375 0.6875 0.546875 1.109375q0.46875 0.40625 1.171875 0.40625q1.078125 0 1.6875 -0.78125l0.921875 1.03125q-0.421875 0.59375 -1.140625 0.9375q-0.71875 0.328125 -1.59375 0.328125zm-0.21875 -5.78125q-0.5625 0 -0.90625 0.390625q-0.34375 0.375 -0.453125 1.078125l2.625 0l0 -0.15625q-0.015625 -0.625 -0.34375 -0.96875q-0.328125 -0.34375 -0.921875 -0.34375zm6.728943 3.359375l1.3125 -4.75l1.953125 0l-2.375 7.046875l-1.796875 0l-2.375 -7.046875l1.96875 0l1.3125 4.75zm6.0794067 2.296875l-1.890625 0l0 -7.046875l1.890625 0l0 7.046875zm-2.0 -8.859375q0 -0.421875 0.28125 -0.6875q0.296875 -0.28125 0.78125 -0.28125q0.484375 0 0.765625 0.28125q0.28125 0.265625 0.28125 0.6875q0 0.421875 -0.296875 0.703125q-0.28125 0.265625 -0.765625 0.265625q-0.46875 0 -0.765625 -0.265625q-0.28125 -0.28125 -0.28125 -0.703125zm6.7994385 8.984375q-1.546875 0 -2.53125 -0.9375q-0.96875 -0.953125 -0.96875 -2.53125l0 -0.1875q0 -1.0625 0.40625 -1.890625q0.40625 -0.84375 1.15625 -1.296875q0.765625 -0.453125 1.71875 -0.453125q1.453125 0 2.28125 0.921875q0.828125 0.90625 0.828125 2.578125l0 0.765625l-4.484375 0q0.09375 0.6875 0.546875 1.109375q0.46875 0.40625 1.171875 0.40625q1.078125 0 1.6875 -0.78125l0.921875 1.03125q-0.421875 0.59375 -1.140625 0.9375q-0.71875 0.328125 -1.59375 0.328125zm-0.21875 -5.78125q-0.5625 0 -0.90625 0.390625q-0.34375 0.375 -0.453125 1.078125l2.625 0l0 -0.15625q-0.015625 -0.625 -0.34375 -0.96875q-0.328125 -0.34375 -0.921875 -0.34375zm10.297974 3.09375l0.921875 -4.484375l1.828125 0l-1.796875 7.046875l-1.578125 0l-1.34375 -4.4375l-1.328125 4.4375l-1.5625 0l-1.796875 -7.046875l1.8125 0l0.921875 4.484375l1.28125 -4.484375l1.359375 0l1.28125 4.484375z" fill-rule="nonzero"/><path fill="#000000" fill-opacity="0.0" d="m709.7578 59.014435l45.858276 0l0 33.70079l-45.858276 0z" fill-rule="evenodd"/><path fill="#4a86e8" d="m739.85297 76.0617l3.21875 0l0 4.546875l-3.21875 0l0 6.15625l-5.65625 0l0 -6.15625l-11.65625 0l-0.25 -3.546875l11.859375 -18.734371l5.703125 0l0 17.734371zm-11.9375 0l6.28125 0l0 -10.046875l-0.359375 0.65625l-5.921875 9.390625z" fill-rule="nonzero"/><path fill="#000000" fill-opacity="0.0" d="m5.5039372 126.19554l148.09448 0l0 22.929123l-148.09448 0z" fill-rule="evenodd"/><path fill="#4a86e8" d="m47.75461 139.8976l4.765625 0l0 1.5625l-7.21875 0l0 -1.140625l4.6875 -6.75l-4.671875 0l0 -1.578125l7.109375 0l0 1.109375l-4.671875 6.796875zm7.8575287 1.5625l-1.890625 0l0 -7.046875l1.890625 0l0 7.046875zm-2.0 -8.859375q0 -0.421875 0.28125 -0.6875q0.296875 -0.28125 0.78125 -0.28125q0.484375 0 0.765625 0.28125q0.28125 0.265625 0.28125 0.6875q0 0.421875 -0.296875 0.703125q-0.28125 0.265625 -0.765625 0.265625q-0.46875 0 -0.765625 -0.265625q-0.28125 -0.28125 -0.28125 -0.703125zm9.893158 5.40625q0 1.625 -0.75 2.609375q-0.734375 0.96875 -1.984375 0.96875q-1.0625 0 -1.71875 -0.734375l0 3.3125l-1.890625 0l0 -9.75l1.75 0l0.0625 0.6875q0.6875 -0.8125 1.78125 -0.8125q1.296875 0 2.015625 0.96875q0.734375 0.953125 0.734375 2.65625l0 0.09375zm-1.875 -0.140625q0 -0.984375 -0.359375 -1.515625q-0.34375 -0.53125 -1.015625 -0.53125q-0.875 0 -1.203125 0.671875l0 2.890625q0.34375 0.6875 1.21875 0.6875q1.359375 0 1.359375 -2.203125zm9.378586 0.140625q0 1.625 -0.75 2.609375q-0.734375 0.96875 -1.984375 0.96875q-1.0625 0 -1.71875 -0.734375l0 3.3125l-1.890625 0l0 -9.75l1.75 0l0.0625 0.6875q0.6875 -0.8125 1.78125 -0.8125q1.296875 0 2.015625 0.96875q0.734375 0.953125 0.734375 2.65625l0 0.09375zm-1.875 -0.140625q0 -0.984375 -0.359375 -1.515625q-0.34375 -0.53125 -1.015625 -0.53125q-0.875 0 -1.203125 0.671875l0 2.890625q0.34375 0.6875 1.21875 0.6875q1.359375 0 1.359375 -2.203125zm6.284836 3.71875q-1.546875 0 -2.53125 -0.9375q-0.96875 -0.953125 -0.96875 -2.53125l0 -0.1875q0 -1.0625 0.40625 -1.890625q0.40625 -0.84375 1.15625 -1.296875q0.765625 -0.453125 1.71875 -0.453125q1.453125 0 2.28125 0.921875q0.828125 0.90625 0.828125 2.578125l0 0.765625l-4.484375 0q0.09375 0.6875 0.546875 1.109375q0.46875 0.40625 1.171875 0.40625q1.078125 0 1.6875 -0.78125l0.921875 1.03125q-0.421875 0.59375 -1.140625 0.9375q-0.71875 0.328125 -1.59375 0.328125zm-0.21875 -5.78125q-0.5625 0 -0.90625 0.390625q-0.34375 0.375 -0.453125 1.078125l2.625 0l0 -0.15625q-0.015625 -0.625 -0.34375 -0.96875q-0.328125 -0.34375 -0.921875 -0.34375zm3.8760986 2.078125q0 -1.640625 0.734375 -2.609375q0.75 -0.984375 2.03125 -0.984375q1.03125 0 1.703125 0.765625l0 -3.59375l1.890625 0l0 10.0l-1.703125 0l-0.09375 -0.75q-0.703125 0.875 -1.8125 0.875q-1.234375 0 -2.0 -0.96875q-0.75 -0.984375 -0.75 -2.734375zm1.890625 0.140625q0 0.984375 0.34375 1.515625q0.34375 0.53125 1.0 0.53125q0.875 0 1.234375 -0.734375l0 -2.78125q-0.359375 -0.734375 -1.21875 -0.734375q-1.359375 0 -1.359375 2.203125zm12.875977 -0.03125l-1.5625 0l0 3.46875l-1.953125 0l0 -9.46875l3.515625 0q1.6875 0 2.59375 0.75q0.921875 0.734375 0.921875 2.109375q0 0.96875 -0.421875 1.625q-0.421875 0.640625 -1.28125 1.015625l2.046875 3.875l0 0.09375l-2.09375 0l-1.765625 -3.46875zm-1.5625 -1.578125l1.578125 0q0.734375 0 1.140625 -0.375q0.40625 -0.375 0.40625 -1.03125q0 -0.671875 -0.390625 -1.046875q-0.375 -0.390625 -1.171875 -0.390625l-1.5625 0l0 2.84375zm14.333923 0.53125q0 1.390625 -0.5 2.453125q-0.484375 1.046875 -1.40625 1.625q-0.921875 0.5625 -2.109375 0.5625q-1.1875 0 -2.109375 -0.5625q-0.921875 -0.5625 -1.4375 -1.609375q-0.5 -1.0625 -0.5 -2.421875l0 -0.46875q0 -1.40625 0.5 -2.46875q0.5 -1.0625 1.421875 -1.625q0.921875 -0.578125 2.109375 -0.578125q1.1875 0 2.109375 0.578125q0.921875 0.5625 1.421875 1.625q0.5 1.0625 0.5 2.453125l0 0.4375zm-1.96875 -0.4375q0 -1.484375 -0.546875 -2.25q-0.53125 -0.78125 -1.515625 -0.78125q-0.984375 0 -1.515625 0.765625q-0.53125 0.75 -0.546875 2.234375l0 0.46875q0 1.4375 0.53125 2.25q0.546875 0.796875 1.546875 0.796875q0.984375 0 1.5 -0.765625q0.53125 -0.78125 0.546875 -2.25l0 -0.46875zm6.920883 1.65625l-3.65625 0l0 -1.515625l3.65625 0l0 1.515625zm9.073502 0.140625q-0.109375 1.53125 -1.125 2.40625q-1.015625 0.875 -2.6875 0.875q-1.8125 0 -2.859375 -1.21875q-1.046875 -1.234375 -1.046875 -3.375l0 -0.578125q0 -1.359375 0.46875 -2.40625q0.484375 -1.046875 1.375 -1.59375q0.90625 -0.5625 2.09375 -0.5625q1.640625 0 2.640625 0.890625q1.0 0.875 1.15625 2.453125l-1.953125 0q-0.0625 -0.90625 -0.515625 -1.3125q-0.4375 -0.421875 -1.328125 -0.421875q-0.984375 0 -1.46875 0.703125q-0.484375 0.6875 -0.5 2.15625l0 0.71875q0 1.53125 0.46875 2.25q0.46875 0.703125 1.46875 0.703125q0.90625 0 1.34375 -0.40625q0.453125 -0.421875 0.515625 -1.28125l1.953125 0zm5.1111755 -2.125q-0.375 -0.046875 -0.671875 -0.046875q-1.0625 0 -1.390625 0.71875l0 4.609375l-1.890625 0l0 -7.046875l1.78125 0l0.046875 0.84375q0.578125 -0.96875 1.578125 -0.96875q0.3125 0 0.578125 0.078125l-0.03125 1.8125zm4.7910767 5.28125q-0.125 -0.25 -0.1875 -0.625q-0.671875 0.75 -1.765625 0.75q-1.046875 0 -1.734375 -0.59375q-0.671875 -0.59375 -0.671875 -1.515625q0 -1.109375 0.828125 -1.703125q0.84375 -0.609375 2.40625 -0.609375l0.859375 0l0 -0.40625q0 -0.484375 -0.25 -0.78125q-0.25 -0.296875 -0.78125 -0.296875q-0.484375 0 -0.75 0.234375q-0.265625 0.21875 -0.265625 0.625l-1.890625 0q0 -0.609375 0.375 -1.125q0.390625 -0.53125 1.078125 -0.828125q0.6875 -0.296875 1.546875 -0.296875q1.296875 0 2.0625 0.65625q0.765625 0.65625 0.765625 1.84375l0 3.046875q0.015625 1.0 0.28125 1.515625l0 0.109375l-1.90625 0zm-1.546875 -1.3125q0.40625 0 0.75 -0.171875q0.359375 -0.1875 0.53125 -0.5l0 -1.21875l-0.703125 0q-1.40625 0 -1.5 0.984375l0 0.109375q0 0.34375 0.234375 0.578125q0.25 0.21875 0.6875 0.21875zm6.864395 -7.453125l0 1.71875l1.203125 0l0 1.390625l-1.203125 0l0 3.515625q0 0.390625 0.15625 0.5625q0.15625 0.15625 0.578125 0.15625q0.3125 0 0.546875 -0.046875l0 1.4375q-0.546875 0.15625 -1.140625 0.15625q-1.984375 0 -2.015625 -2.0l0 -3.78125l-1.03125 0l0 -1.390625l1.03125 0l0 -1.71875l1.875 0zm5.5034485 8.890625q-1.546875 0 -2.53125 -0.9375q-0.96875 -0.953125 -0.96875 -2.53125l0 -0.1875q0 -1.0625 0.40625 -1.890625q0.40625 -0.84375 1.15625 -1.296875q0.765625 -0.453125 1.71875 -0.453125q1.453125 0 2.28125 0.921875q0.828125 0.90625 0.828125 2.578125l0 0.765625l-4.484375 0q0.09375 0.6875 0.546875 1.109375q0.46875 0.40625 1.171875 0.40625q1.078125 0 1.6875 -0.78125l0.921875 1.03125q-0.421875 0.59375 -1.140625 0.9375q-0.71875 0.328125 -1.59375 0.328125zm-0.21875 -5.78125q-0.5625 0 -0.90625 0.390625q-0.34375 0.375 -0.453125 1.078125l2.625 0l0 -0.15625q-0.015625 -0.625 -0.34375 -0.96875q-0.328125 -0.34375 -0.921875 -0.34375z" fill-rule="nonzero"/><path fill="#000000" fill-opacity="0.0" d="m272.063 114.22572l62.393707 0l0 33.921265l-62.393707 0z" fill-rule="evenodd"/><path fill="#4a86e8" d="m287.8087 134.74573l-1.75 0l0 -8.531258l1.75 0l0 8.531258zm3.1074219 -6.34375l0.0625 0.71875q0.671875 -0.828125 1.8125 -0.828125q1.234375 0 1.6875 0.96875q0.671875 -0.96875 1.90625 -0.96875q1.03125 0 1.53125 0.609375q0.5 0.59375 0.5 1.796875l0 4.046875l-1.6875 0l0 -4.046875q0 -0.53125 -0.21875 -0.78125q-0.203125 -0.25 -0.75 -0.25q-0.75 0 -1.046875 0.71875l0 4.359375l-1.6875 0l0 -4.03125q0 -0.5625 -0.21875 -0.796875q-0.21875 -0.25 -0.734375 -0.25q-0.71875 0 -1.046875 0.59375l0 4.484375l-1.6875 0l0 -6.34375l1.578125 0zm14.513672 3.234375q0 1.46875 -0.671875 2.359375q-0.65625 0.875 -1.796875 0.875q-0.953125 0 -1.546875 -0.671875l0 2.984375l-1.6875 0l0 -8.78125l1.5625 0l0.0625 0.625q0.609375 -0.734375 1.609375 -0.734375q1.171875 0 1.8125 0.875q0.65625 0.859375 0.65625 2.375l0 0.09375zm-1.6875 -0.125q0 -0.890625 -0.328125 -1.359375q-0.3125 -0.484375 -0.90625 -0.484375q-0.796875 0 -1.09375 0.609375l0 2.59375q0.3125 0.625 1.109375 0.625q1.21875 0 1.21875 -1.984375zm2.4746094 0q0 -0.9375 0.359375 -1.671875q0.359375 -0.75 1.046875 -1.140625q0.6875 -0.40625 1.578125 -0.40625q1.296875 0 2.09375 0.78125q0.8125 0.78125 0.90625 2.125l0.015625 0.4375q0 1.46875 -0.8125 2.359375q-0.8125 0.875 -2.1875 0.875q-1.375 0 -2.1875 -0.875q-0.8125 -0.890625 -0.8125 -2.40625l0 -0.078125zm1.6875 0.125q0 0.90625 0.34375 1.390625q0.34375 0.46875 0.96875 0.46875q0.625 0 0.96875 -0.46875q0.34375 -0.46875 0.34375 -1.515625q0 -0.875 -0.34375 -1.359375q-0.34375 -0.5 -0.984375 -0.5q-0.609375 0 -0.953125 0.484375q-0.34375 0.484375 -0.34375 1.5zm8.925781 -1.640625q-0.34375 -0.046875 -0.609375 -0.046875q-0.96875 0 -1.265625 0.640625l0 4.15625l-1.6875 0l0 -6.34375l1.59375 0l0.046875 0.765625q0.515625 -0.875 1.40625 -0.875q0.28125 0 0.53125 0.078125l-0.015625 1.625zm3.1230469 -3.1562576l0 1.5625076l1.09375 0l0 1.25l-1.09375 0l0 3.15625q0 0.359375 0.140625 0.515625q0.140625 0.140625 0.515625 0.140625q0.28125 0 0.5 -0.03125l0 1.28125q-0.5 0.15625 -1.03125 0.15625q-1.78125 0 -1.8125 -1.8125l0 -3.40625l-0.921875 0l0 -1.25l0.921875 0l0 -1.5625076l1.6875 0z" fill-rule="nonzero"/><path fill="#000000" fill-opacity="0.0" d="m22.653543 84.45932l92.944885 0l0 35.55905l-92.944885 0z" fill-rule="evenodd"/><path fill="#4a86e8" d="m38.615623 104.696815l4.140625 0l0 1.5625l-6.09375 0l0 -9.46875l1.953125 0l0 7.90625zm4.8422394 -2.015625q0 -1.0625 0.40625 -1.875q0.40625 -0.828125 1.15625 -1.265625q0.765625 -0.453125 1.765625 -0.453125q1.4375 0 2.328125 0.875q0.90625 0.875 1.015625 2.359375l0 0.484375q0 1.625 -0.90625 2.609375q-0.890625 0.96875 -2.421875 0.96875q-1.515625 0 -2.4375 -0.96875q-0.90625 -0.984375 -0.90625 -2.65625l0 -0.078125zm1.890625 0.125q0 1.0 0.375 1.53125q0.375 0.53125 1.078125 0.53125q0.6875 0 1.0625 -0.515625q0.390625 -0.53125 0.390625 -1.671875q0 -0.984375 -0.390625 -1.53125q-0.375 -0.546875 -1.078125 -0.546875q-0.6875 0 -1.0625 0.546875q-0.375 0.53125 -0.375 1.65625zm8.879868 2.0625q0.515625 0 0.84375 -0.28125q0.328125 -0.28125 0.328125 -0.765625l1.765625 0q0 0.71875 -0.390625 1.3125q-0.375 0.59375 -1.046875 0.921875q-0.671875 0.328125 -1.46875 0.328125q-1.515625 0 -2.390625 -0.953125q-0.875 -0.96875 -0.875 -2.65625l0 -0.125q0 -1.625 0.859375 -2.59375q0.875 -0.96875 2.390625 -0.96875q1.3125 0 2.109375 0.75q0.8125 0.75 0.8125 2.0l-1.765625 0q0 -0.546875 -0.328125 -0.890625q-0.328125 -0.34375 -0.859375 -0.34375q-0.65625 0 -1.0 0.484375q-0.328125 0.484375 -0.328125 1.546875l0 0.203125q0 1.078125 0.328125 1.5625q0.328125 0.46875 1.015625 0.46875zm8.091034 1.390625q-0.125 -0.25 -0.1875 -0.625q-0.671875 0.75 -1.765625 0.75q-1.046875 0 -1.734375 -0.59375q-0.671875 -0.59375 -0.671875 -1.515625q0 -1.109375 0.828125 -1.703125q0.84375 -0.609375 2.40625 -0.609375l0.859375 0l0 -0.40625q0 -0.484375 -0.25 -0.78125q-0.25 -0.296875 -0.78125 -0.296875q-0.484375 0 -0.75 0.234375q-0.265625 0.21875 -0.265625 0.625l-1.890625 0q0 -0.609375 0.375 -1.125q0.390625 -0.53125 1.078125 -0.828125q0.6875 -0.296875 1.546875 -0.296875q1.296875 0 2.0625 0.65625q0.765625 0.65625 0.765625 1.84375l0 3.046875q0.015625 1.0 0.28125 1.515625l0 0.109375l-1.90625 0zm-1.546875 -1.3125q0.40625 0 0.75 -0.171875q0.359375 -0.1875 0.53125 -0.5l0 -1.21875l-0.703125 0q-1.40625 0 -1.5 0.984375l0 0.109375q0 0.34375 0.234375 0.578125q0.25 0.21875 0.6875 0.21875zm6.59877 1.3125l-1.890625 0l0 -10.0l1.890625 0l0 10.0zm5.3215485 0l0 -5.65625l-1.046875 0l0 -1.390625l1.046875 0l0 -0.3125q0.015625 -1.328125 0.8125 -2.046875q0.8125 -0.71875 2.28125 -0.71875q0.875 0 2.125 0.375l-0.265625 1.5625q-0.640625 -0.1875 -1.0 -0.25q-0.34375 -0.0625 -0.75 -0.0625q-1.3125 0 -1.3125 1.171875l0 0.28125l1.390625 0l0 1.390625l-1.390625 0l0 5.65625l-1.890625 0zm6.109375 0l-1.890625 0l0 -7.046875l1.890625 0l0 7.046875zm3.5306854 0l-1.890625 0l0 -10.0l1.890625 0l0 10.0zm4.799408 0.125q-1.546875 0 -2.53125 -0.9375q-0.96875 -0.953125 -0.96875 -2.53125l0 -0.1875q0 -1.0625 0.40625 -1.890625q0.40625 -0.84375 1.15625 -1.296875q0.765625 -0.453125 1.71875 -0.453125q1.453125 0 2.28125 0.921875q0.828125 0.90625 0.828125 2.578125l0 0.765625l-4.484375 0q0.09375 0.6875 0.546875 1.109375q0.46875 0.40625 1.171875 0.40625q1.078125 0 1.6875 -0.78125l0.921875 1.03125q-0.421875 0.59375 -1.140625 0.9375q-0.71875 0.328125 -1.59375 0.328125zm-0.21875 -5.78125q-0.5625 0 -0.90625 0.390625q-0.34375 0.375 -0.453125 1.078125l2.625 0l0 -0.15625q-0.015625 -0.625 -0.34375 -0.96875q-0.328125 -0.34375 -0.921875 -0.34375zm4.2667236 1.796875q0 -1.484375 0.390625 -2.828125q0.390625 -1.34375 1.171875 -2.375q0.78125 -1.046875 1.671875 -1.453125l0.375 1.015625q-0.953125 0.703125 -1.484375 2.171875q-0.53125 1.46875 -0.53125 3.4375l0 0.203125q0 1.96875 0.515625 3.453125q0.53125 1.46875 1.5 2.203125l-0.375 1.0q-0.875 -0.40625 -1.640625 -1.421875q-0.765625 -1.0 -1.171875 -2.3125q-0.40625 -1.3125 -0.421875 -2.734375l0 -0.359375zm8.397919 1.90625q0 -0.34375 -0.34375 -0.53125q-0.328125 -0.203125 -1.09375 -0.359375q-2.515625 -0.53125 -2.515625 -2.140625q0 -0.9375 0.78125 -1.5625q0.78125 -0.625 2.03125 -0.625q1.34375 0 2.140625 0.640625q0.8125 0.625 0.8125 1.625l-1.875 0q0 -0.390625 -0.265625 -0.65625q-0.265625 -0.265625 -0.8125 -0.265625q-0.46875 0 -0.734375 0.21875q-0.265625 0.203125 -0.265625 0.546875q0 0.3125 0.296875 0.5q0.296875 0.1875 1.0 0.328125q0.703125 0.140625 1.1875 0.3125q1.484375 0.546875 1.484375 1.890625q0 0.96875 -0.828125 1.5625q-0.8125 0.59375 -2.125 0.59375q-0.890625 0 -1.578125 -0.3125q-0.6875 -0.3125 -1.078125 -0.859375q-0.390625 -0.546875 -0.390625 -1.1875l1.78125 0q0.03125 0.5 0.375 0.765625q0.34375 0.265625 0.921875 0.265625q0.546875 0 0.8125 -0.203125q0.28125 -0.203125 0.28125 -0.546875zm6.2902985 -1.75q0 1.46875 -0.421875 2.828125q-0.421875 1.359375 -1.21875 2.40625q-0.796875 1.046875 -1.703125 1.4375l-0.359375 -1.0q0.921875 -0.703125 1.453125 -2.15625q0.53125 -1.453125 0.546875 -3.328125l0 -0.34375q0 -1.953125 -0.53125 -3.4375q-0.53125 -1.484375 -1.46875 -2.21875l0.359375 -1.0q0.890625 0.390625 1.671875 1.40625q0.78125 1.0 1.203125 2.34375q0.4375 1.328125 0.46875 2.765625l0 0.296875z" fill-rule="nonzero"/><path fill="#000000" fill-opacity="0.0" d="m0.6614173 8.985564l147.18109 0l0 35.559055l-147.18109 0z" fill-rule="evenodd"/><path fill="#4a86e8" d="m30.498468 27.316814l-1.5625 0l0 3.46875l-1.953125 0l0 -9.46875l3.515625 0q1.6875019 0 2.593752 0.75q0.921875 0.734375 0.921875 2.109375q0 0.96875 -0.421875 1.625q-0.421875 0.640625 -1.28125 1.015625l2.046875 3.875l0 0.09375l-2.09375 0l-1.7656269 -3.46875zm-1.5625 -1.578125l1.578125 0q0.734375 0 1.140625 -0.375q0.4062519 -0.375 0.4062519 -1.03125q0 -0.671875 -0.3906269 -1.046875q-0.375 -0.390625 -1.171875 -0.390625l-1.5625 0l0 2.84375zm9.677675 5.171875q-1.546875 0 -2.53125 -0.9375q-0.96875 -0.953125 -0.96875 -2.53125l0 -0.1875q0 -1.0625 0.40625 -1.890625q0.40625 -0.84375 1.15625 -1.296875q0.765625 -0.453125 1.71875 -0.453125q1.453125 0 2.28125 0.921875q0.828125 0.90625 0.828125 2.578125l0 0.765625l-4.484375 0q0.09375 0.6875 0.546875 1.109375q0.46875 0.40625 1.171875 0.40625q1.078125 0 1.6875 -0.78125l0.921875 1.03125q-0.421875 0.59375 -1.140625 0.9375q-0.71875 0.328125 -1.59375 0.328125zm-0.21875 -5.78125q-0.5625 0 -0.90625 0.390625q-0.34375 0.375 -0.453125 1.078125l2.625 0l0 -0.15625q-0.015625 -0.625 -0.34375 -0.96875q-0.328125 -0.34375 -0.921875 -0.34375zm5.9385986 -1.390625l0.0625 0.796875q0.75 -0.921875 2.015625 -0.921875q1.359375 0 1.875 1.078125q0.734375 -1.078125 2.109375 -1.078125q1.15625 0 1.703125 0.671875q0.5625 0.65625 0.5625 2.0l0 4.5l-1.890625 0l0 -4.484375q0 -0.609375 -0.234375 -0.875q-0.234375 -0.28125 -0.8125 -0.28125q-0.859375 0 -1.171875 0.8125l0 4.828125l-1.875 0l0 -4.484375q0 -0.609375 -0.25 -0.875q-0.234375 -0.28125 -0.8125 -0.28125q-0.796875 0 -1.15625 0.65625l0 4.984375l-1.890625 0l0 -7.046875l1.765625 0zm9.475967 3.46875q0 -1.0625 0.40625 -1.875q0.40625 -0.828125 1.15625 -1.265625q0.765625 -0.453125 1.765625 -0.453125q1.4375 0 2.328125 0.875q0.90625 0.875 1.015625 2.359375l0 0.484375q0 1.625 -0.90625 2.609375q-0.890625 0.96875 -2.421875 0.96875q-1.515625 0 -2.4375 -0.96875q-0.90625 -0.984375 -0.90625 -2.65625l0 -0.078125zm1.890625 0.125q0 1.0 0.375 1.53125q0.375 0.53125 1.078125 0.53125q0.6875 0 1.0625 -0.515625q0.390625 -0.53125 0.390625 -1.671875q0 -0.984375 -0.390625 -1.53125q-0.375 -0.546875 -1.078125 -0.546875q-0.6875 0 -1.0625 0.546875q-0.375 0.53125 -0.375 1.65625zm8.192368 -5.3125l0 1.71875l1.2031212 0l0 1.390625l-1.2031212 0l0 3.515625q0 0.390625 0.15624619 0.5625q0.15625 0.15625 0.578125 0.15625q0.3125 0 0.546875 -0.046875l0 1.4375q-0.546875 0.15625 -1.140625 0.15625q-1.9843712 0 -2.0156212 -2.0l0 -3.78125l-1.03125 0l0 -1.390625l1.03125 0l0 -1.71875l1.875 0zm5.5034447 8.890625q-1.546875 0 -2.53125 -0.9375q-0.96875 -0.953125 -0.96875 -2.53125l0 -0.1875q0 -1.0625 0.40625 -1.890625q0.40625 -0.84375 1.15625 -1.296875q0.765625 -0.453125 1.71875 -0.453125q1.453125 0 2.28125 0.921875q0.828125 0.90625 0.828125 2.578125l0 0.765625l-4.484375 0q0.09375 0.6875 0.546875 1.109375q0.46875 0.40625 1.171875 0.40625q1.078125 0 1.6875 -0.78125l0.921875 1.03125q-0.421875 0.59375 -1.140625 0.9375q-0.71875 0.328125 -1.59375 0.328125zm-0.21875 -5.78125q-0.5625 0 -0.90625 0.390625q-0.34375 0.375 -0.453125 1.078125l2.625 0l0 -0.15625q-0.015625 -0.625 -0.34375 -0.96875q-0.328125 -0.34375 -0.921875 -0.34375zm7.945114 5.65625l0 -5.65625l-1.046875 0l0 -1.390625l1.046875 0l0 -0.3125q0.015625 -1.328125 0.8125 -2.046875q0.8125 -0.71875 2.28125 -0.71875q0.875 0 2.125 0.375l-0.265625 1.5625q-0.640625 -0.1875 -1.0 -0.25q-0.34375 -0.0625 -0.75 -0.0625q-1.3125 0 -1.3125 1.171875l0 0.28125l1.390625 0l0 1.390625l-1.390625 0l0 5.65625l-1.890625 0zm6.109375 0l-1.890625 0l0 -7.046875l1.890625 0l0 7.046875zm3.5306854 0l-1.890625 0l0 -10.0l1.890625 0l0 10.0zm4.799408 0.125q-1.546875 0 -2.53125 -0.9375q-0.96875 -0.953125 -0.96875 -2.53125l0 -0.1875q0 -1.0625 0.40625 -1.890625q0.40625 -0.84375 1.15625 -1.296875q0.765625 -0.453125 1.71875 -0.453125q1.453125 0 2.28125 0.921875q0.828125 0.90625 0.828125 2.578125l0 0.765625l-4.484375 0q0.09375 0.6875 0.546875 1.109375q0.46875 0.40625 1.171875 0.40625q1.078125 0 1.6875 -0.78125l0.921875 1.03125q-0.421875 0.59375 -1.140625 0.9375q-0.71875 0.328125 -1.59375 0.328125zm-0.21875 -5.78125q-0.5625 0 -0.90625 0.390625q-0.34375 0.375 -0.453125 1.078125l2.625 0l0 -0.15625q-0.015625 -0.625 -0.34375 -0.96875q-0.328125 -0.34375 -0.921875 -0.34375zm4.2667236 1.796875q0 -1.484375 0.390625 -2.828125q0.390625 -1.34375 1.171875 -2.375q0.78125 -1.046875 1.671875 -1.453125l0.375 1.015625q-0.953125 0.703125 -1.484375 2.171875q-0.53125 1.46875 -0.53125 3.4375l0 0.203125q0 1.96875 0.515625 3.453125q0.53125 1.46875 1.5 2.203125l-0.375 1.0q-0.875 -0.40625 -1.640625 -1.421875q-0.765625 -1.0 -1.171875 -2.3125q-0.40625 -1.3125 -0.421875 -2.734375l0 -0.359375zm8.397919 1.90625q0 -0.34375 -0.34375 -0.53125q-0.328125 -0.203125 -1.09375 -0.359375q-2.515625 -0.53125 -2.515625 -2.140625q0 -0.9375 0.78125 -1.5625q0.78125 -0.625 2.03125 -0.625q1.34375 0 2.140625 0.640625q0.8125 0.625 0.8125 1.625l-1.875 0q0 -0.390625 -0.265625 -0.65625q-0.265625 -0.265625 -0.8125 -0.265625q-0.46875 0 -0.734375 0.21875q-0.265625 0.203125 -0.265625 0.546875q0 0.3125 0.296875 0.5q0.296875 0.1875 1.0 0.328125q0.703125 0.140625 1.1875 0.3125q1.484375 0.546875 1.484375 1.890625q0 0.96875 -0.828125 1.5625q-0.8125 0.59375 -2.125 0.59375q-0.890625 0 -1.578125 -0.3125q-0.6875 -0.3125 -1.078125 -0.859375q-0.390625 -0.546875 -0.390625 -1.1875l1.78125 0q0.03125 0.5 0.375 0.765625q0.34375 0.265625 0.921875 0.265625q0.546875 0 0.8125 -0.203125q0.28125 -0.203125 0.28125 -0.546875zm6.2902985 -1.75q0 1.46875 -0.421875 2.828125q-0.421875 1.359375 -1.21875 2.40625q-0.796875 1.046875 -1.703125 1.4375l-0.359375 -1.0q0.921875 -0.703125 1.453125 -2.15625q0.53125 -1.453125 0.546875 -3.328125l0 -0.34375q0 -1.953125 -0.53125 -3.4375q-0.53125 -1.484375 -1.46875 -2.21875l0.359375 -1.0q0.890625 0.390625 1.671875 1.40625q0.78125 1.0 1.203125 2.34375q0.4375 1.328125 0.46875 2.765625l0 0.296875zm12.064575 -5.765625l0 6.234375q0 1.5625 -0.96875 2.46875q-0.96875 0.890625 -2.65625 0.890625q-1.65625 0 -2.640625 -0.875q-0.96875 -0.875 -1.0 -2.40625l0 -6.3125l1.953125 0l0 6.25q0 0.921875 0.4375 1.359375q0.453125 0.421875 1.25 0.421875q1.640625 0 1.671875 -1.734375l0 -6.296875l1.953125 0zm5.1163635 6.0l-1.5625 0l0 3.46875l-1.953125 0l0 -9.46875l3.515625 0q1.6875076 0 2.5937576 0.75q0.921875 0.734375 0.921875 2.109375q0 0.96875 -0.421875 1.625q-0.421875 0.640625 -1.28125 1.015625l2.046875 3.875l0 0.09375l-2.09375 0l-1.7656326 -3.46875zm-1.5625 -1.578125l1.578125 0q0.7343826 0 1.1406326 -0.375q0.40625 -0.375 0.40625 -1.03125q0 -0.671875 -0.390625 -1.046875q-0.375 -0.390625 -1.1718826 -0.390625l-1.5625 0l0 2.84375zm8.505806 3.484375l4.140625 0l0 1.5625l-6.09375 0l0 -9.46875l1.953125 0l0 7.90625z" fill-rule="nonzero"/><path fill="#000000" fill-opacity="0.0" d="m0.6614173 46.7231l106.67717 0l0 35.55905l-106.67717 0z" fill-rule="evenodd"/><path fill="#4a86e8" d="m25.366472 67.31997q-0.53125 0.640625 -1.5 0.984375q-0.953125 0.34375 -2.125 0.34375q-1.234375 0 -2.15625 -0.53125q-0.921875 -0.53125 -1.4375 -1.546875q-0.5 -1.03125 -0.515625 -2.40625l0 -0.6562462q0 -1.421875 0.46875 -2.453125q0.484375 -1.03125 1.390625 -1.578125q0.90625 -0.5625 2.109375 -0.5625q1.6875 0 2.640625 0.8125q0.953125 0.796875 1.125 2.328125l-1.90625 0q-0.125 -0.8125 -0.578125 -1.1875q-0.4375 -0.375 -1.21875 -0.375q-1.0 0 -1.515625 0.75q-0.515625 0.75 -0.53125 2.21875l0 0.6093712q0 1.484375 0.5625 2.25q0.578125 0.765625 1.671875 0.765625q1.09375 0 1.5625 -0.46875l0 -1.640625l-1.78125 0l0 -1.4374962l3.734375 0l0 3.7812462zm3.4378662 1.203125l-1.890625 0l0 -7.046871l1.890625 0l0 7.046871zm-2.0 -8.859371q0 -0.421875 0.28125 -0.6875q0.296875 -0.28125 0.78125 -0.28125q0.484375 0 0.765625 0.28125q0.28125 0.265625 0.28125 0.6875q0 0.421875 -0.296875 0.703125q-0.28125 0.265625 -0.765625 0.265625q-0.46875 0 -0.765625 -0.265625q-0.28125 -0.28125 -0.28125 -0.703125zm5.79941 0.09375l0 1.71875l1.203125 0l0 1.390625l-1.203125 0l0 3.5156212q0 0.390625 0.15625 0.5625q0.15625 0.15625 0.578125 0.15625q0.3125 0 0.546875 -0.046875l0 1.4375q-0.546875 0.15625 -1.140625 0.15625q-1.9843769 0 -2.015627 -2.0l0 -3.7812462l-1.03125 0l0 -1.390625l1.03125 0l0 -1.71875l1.8750019 0zm9.525589 3.484375q-0.375 -0.046875 -0.671875 -0.046875q-1.0625 0 -1.390625 0.71875l0 4.609371l-1.890625 0l0 -7.046871l1.78125 0l0.046875 0.84375q0.578125 -0.96875 1.578125 -0.96875q0.3125 0 0.578125 0.078125l-0.03125 1.8125zm4.034561 5.406246q-1.546875 0 -2.53125 -0.9375q-0.96875 -0.953125 -0.96875 -2.53125l0 -0.1875q0 -1.0624962 0.40625 -1.8906212q0.40625 -0.84375 1.15625 -1.296875q0.765625 -0.453125 1.71875 -0.453125q1.453125 0 2.28125 0.921875q0.828125 0.90625 0.828125 2.5781212l0 0.765625l-4.484375 0q0.09375 0.6875 0.546875 1.109375q0.46875 0.40625 1.171875 0.40625q1.078125 0 1.6875 -0.78125l0.921875 1.03125q-0.421875 0.59375 -1.140625 0.9375q-0.71875 0.328125 -1.59375 0.328125zm-0.21875 -5.781246q-0.5625 0 -0.90625 0.390625q-0.34375 0.375 -0.453125 1.0781212l2.625 0l0 -0.15625q-0.015625 -0.6249962 -0.34375 -0.9687462q-0.328125 -0.34375 -0.921875 -0.34375zm10.516724 2.2031212q0 1.625 -0.75 2.609375q-0.734375 0.96875 -1.984375 0.96875q-1.0625 0 -1.71875 -0.734375l0 3.3125l-1.890625 0l0 -9.749996l1.75 0l0.0625 0.6875q0.6875 -0.8125 1.78125 -0.8125q1.296875 0 2.015625 0.96875q0.734375 0.953125 0.734375 2.6562462l0 0.09375zm-1.875 -0.140625q0 -0.9843712 -0.359375 -1.5156212q-0.34375 -0.53125 -1.015625 -0.53125q-0.875 0 -1.203125 0.671875l0 2.8906212q0.34375 0.6875 1.21875 0.6875q1.359375 0 1.359375 -2.203125zm2.7379608 0.015625q0 -1.0624962 0.40625 -1.8749962q0.40625 -0.828125 1.15625 -1.265625q0.765625 -0.453125 1.765625 -0.453125q1.4375 0 2.328125 0.875q0.90625 0.875 1.015625 2.3593712l0 0.484375q0 1.625 -0.90625 2.609375q-0.890625 0.96875 -2.421875 0.96875q-1.515625 0 -2.4375 -0.96875q-0.90625 -0.984375 -0.90625 -2.65625l0 -0.078125zm1.890625 0.125q0 1.0 0.375 1.53125q0.375 0.53125 1.078125 0.53125q0.6875 0 1.0625 -0.515625q0.390625 -0.53125 0.390625 -1.671875q0 -0.9843712 -0.390625 -1.5312462q-0.375 -0.546875 -1.078125 -0.546875q-0.6875 0 -1.0625 0.546875q-0.375 0.53125 -0.375 1.6562462zm9.754864 1.5q0 -0.34375 -0.34375 -0.53125q-0.328125 -0.203125 -1.09375 -0.359375q-2.515625 -0.53125 -2.515625 -2.1406212q0 -0.9375 0.78125 -1.5625q0.78125 -0.625 2.03125 -0.625q1.34375 0 2.140625 0.640625q0.8125 0.625 0.8125 1.625l-1.875 0q0 -0.390625 -0.265625 -0.65625q-0.265625 -0.265625 -0.8125 -0.265625q-0.46875 0 -0.734375 0.21875q-0.265625 0.203125 -0.265625 0.546875q0 0.3125 0.296875 0.5q0.296875 0.18749619 1.0 0.3281212q0.703125 0.140625 1.1875 0.3125q1.484375 0.546875 1.484375 1.890625q0 0.96875 -0.828125 1.5625q-0.8125 0.59375 -2.125 0.59375q-0.890625 0 -1.578125 -0.3125q-0.6875 -0.3125 -1.078125 -0.859375q-0.390625 -0.546875 -0.390625 -1.1875l1.78125 0q0.03125 0.5 0.375 0.765625q0.34375 0.265625 0.921875 0.265625q0.546875 0 0.8125 -0.203125q0.28125 -0.203125 0.28125 -0.546875zm5.0246735 1.953125l-1.890625 0l0 -7.046871l1.890625 0l0 7.046871zm-2.0 -8.859371q0 -0.421875 0.28125 -0.6875q0.296875 -0.28125 0.78125 -0.28125q0.484375 0 0.765625 0.28125q0.28125 0.265625 0.28125 0.6875q0 0.421875 -0.296875 0.703125q-0.28125 0.265625 -0.765625 0.265625q-0.46875 0 -0.765625 -0.265625q-0.28125 -0.28125 -0.28125 -0.703125zm5.799408 0.09375l0 1.71875l1.203125 0l0 1.390625l-1.203125 0l0 3.5156212q0 0.390625 0.15625 0.5625q0.15625 0.15625 0.578125 0.15625q0.3125 0 0.546875 -0.046875l0 1.4375q-0.546875 0.15625 -1.140625 0.15625q-1.984375 0 -2.015625 -2.0l0 -3.7812462l-1.03125 0l0 -1.390625l1.03125 0l0 -1.71875l1.875 0zm1.761261 5.187496q0 -1.0624962 0.40625 -1.8749962q0.40625 -0.828125 1.15625 -1.265625q0.765625 -0.453125 1.765625 -0.453125q1.4375 0 2.328125 0.875q0.90625 0.875 1.015625 2.3593712l0 0.484375q0 1.625 -0.90625 2.609375q-0.890625 0.96875 -2.421875 0.96875q-1.515625 0 -2.4375 -0.96875q-0.90625 -0.984375 -0.90625 -2.65625l0 -0.078125zm1.890625 0.125q0 1.0 0.375 1.53125q0.375 0.53125 1.078125 0.53125q0.6875 0 1.0625 -0.515625q0.390625 -0.53125 0.390625 -1.671875q0 -0.9843712 -0.390625 -1.5312462q-0.375 -0.546875 -1.078125 -0.546875q-0.6875 0 -1.0625 0.546875q-0.375 0.53125 -0.375 1.6562462zm9.895493 -1.8281212q-0.375 -0.046875 -0.671875 -0.046875q-1.0625 0 -1.390625 0.71875l0 4.609371l-1.890625 0l0 -7.046871l1.78125 0l0.046875 0.84375q0.578125 -0.96875 1.578125 -0.96875q0.3125 0 0.578125 0.078125l-0.03125 1.8125zm3.6504517 2.6249962l1.3125 -4.390621l2.015625 0l-2.828125 8.140621l-0.15625 0.375q-0.640625 1.375 -2.09375 1.375q-0.40625 0 -0.828125 -0.125l0 -1.421875l0.28125 0q0.546875 0 0.796875 -0.171875q0.265625 -0.15625 0.421875 -0.53125l0.21875 -0.578125l-2.46875 -7.062496l2.03125 0l1.296875 4.390621z" fill-rule="nonzero"/><path fill="#000000" fill-opacity="0.0" d="m107.338585 64.502625c41.1811 0 61.771645 2.8425217 82.362206 5.6850433c20.590546 2.842514 41.181107 5.6850357 82.3622 5.6850357" fill-rule="evenodd"/><path stroke="#4a86e8" stroke-width="3.0" stroke-linejoin="round" stroke-linecap="butt" d="m107.338585 64.502625c41.1811 0 61.771645 2.8425217 82.362206 5.6850433c10.295273 1.421257 20.590546 2.842514 33.45964 3.9084625c6.434555 0.53297424 13.512558 0.9771118 21.55574 1.2880173c2.010788 0.07772064 4.081909 0.14712524 6.2183685 0.20749664c0.5341339 0.015098572 1.0723267 0.029624939 1.6147003 0.0435791l1.5148621 0.037078857" fill-rule="evenodd"/><path fill="#4a86e8" stroke="#4a86e8" stroke-width="3.0" stroke-linecap="butt" d="m254.00894 80.62719l13.66861 -4.803314l-13.558273 -5.106468z" fill-rule="evenodd"/><path fill="#000000" fill-opacity="0.0" d="m147.84251 26.76509c31.05513 0 46.582687 12.275593 62.110245 24.551182c15.527557 12.275589 31.055115 24.551182 62.11023 24.551182" fill-rule="evenodd"/><path stroke="#4a86e8" stroke-width="3.0" stroke-linejoin="round" stroke-linecap="butt" d="m147.84251 26.76509c31.05513 0 46.582687 12.275593 62.110245 24.551182c7.7637787 6.1377945 15.527557 12.275589 25.232285 16.87894c4.852356 2.3016663 10.189957 4.219734 16.255417 5.5623703c0.7581787 0.16783142 1.5277405 0.32667542 2.3091278 0.47614288l0.38131714 0.0715332" fill-rule="evenodd"/><path fill="#4a86e8" stroke="#4a86e8" stroke-width="3.0" stroke-linecap="butt" d="m253.70085 79.24175l13.992996 -3.7549286l-13.132874 -6.1180725z" fill-rule="evenodd"/><path fill="#000000" fill-opacity="0.0" d="m153.59842 137.66011c29.615952 0 44.42482 -15.448822 59.231903 -30.897644c14.807083 -15.448814 29.612396 -30.897636 59.224792 -30.897636" fill-rule="evenodd"/><path stroke="#4a86e8" stroke-width="3.0" stroke-linejoin="round" stroke-linecap="butt" d="m153.59842 137.66011c29.615967 0 44.42482 -15.448822 59.231903 -30.897644c7.403534 -7.724411 14.806656 -15.448814 24.06041 -21.242126c4.626877 -2.8966522 9.716431 -5.3105316 15.5000305 -7.000244c0.36146545 -0.10560608 0.72566223 -0.20838165 1.0926056 -0.30827332c0.18348694 -0.049949646 0.36766052 -0.0991745 0.55252075 -0.14766693l0.1493988 -0.03845215" fill-rule="evenodd"/><path fill="#4a86e8" stroke="#4a86e8" stroke-width="3.0" stroke-linecap="butt" d="m254.78015 82.94506l12.92099 -6.553734l-14.110718 -3.2849884z" fill-rule="evenodd"/><path fill="#000000" fill-opacity="0.0" d="m115.59843 102.238846c39.11576 0 58.672462 -6.5905533 78.23153 -13.181107c19.559052 -6.5905457 39.120453 -13.181099 78.240906 -13.181099" fill-rule="evenodd"/><path stroke="#4a86e8" stroke-width="3.0" stroke-linejoin="round" stroke-linecap="butt" d="m115.59843 102.238846c39.11576 0 58.672462 -6.5905533 78.23153 -13.181107c9.779526 -3.2952728 19.559647 -6.5905457 31.784927 -9.062004c6.1126404 -1.2357254 12.836578 -2.265503 20.477386 -2.9863434c1.9102173 -0.18021393 3.877716 -0.34111786 5.907303 -0.481102c0.5074005 -0.034988403 1.0186768 -0.06867981 1.5338898 -0.10103607l0.54486084 -0.032546997" fill-rule="evenodd"/><path fill="#4a86e8" stroke="#4a86e8" stroke-width="3.0" stroke-linecap="butt" d="m254.22095 81.34785l13.466034 -5.3449783l-13.751282 -4.56131z" fill-rule="evenodd"/></g></svg>